<mxfile host="app.diagrams.net" agent="Mozilla/5.0 (X11; Linux x86_64) AppleWebKit/537.36 (KHTML, like Gecko) Chrome/140.0.0.0 Safari/537.36" version="28.2.3" pages="2">
  <diagram id="0pV2qVseu2UoPbGQs5wC" name="Page-2">
    <mxGraphModel dx="872" dy="1642" grid="1" gridSize="10" guides="1" tooltips="1" connect="1" arrows="1" fold="1" page="1" pageScale="1" pageWidth="827" pageHeight="1169" background="none" math="0" shadow="0">
      <root>
        <mxCell id="0" />
        <mxCell id="1" parent="0" />
        <mxCell id="EDQTZBUxX6hISjZByNQi-13" value="" style="shape=image;verticalLabelPosition=bottom;labelBackgroundColor=default;verticalAlign=top;aspect=fixed;imageAspect=0;image=data:image/jpeg,/9j/4AAQSkZJRgABAQEASABIAAD/2wBDAAYEBQYFBAYGBQYHBwYIChAKCgkJChQODwwQFxQYGBcUFhYaHSUfGhsjHBYWICwgIyYnKSopGR8tMC0oMCUoKSj/2wBDAQcHBwoIChMKChMoGhYaKCgoKCgoKCgoKCgoKCgoKCgoKCgoKCgoKCgoKCgoKCgoKCgoKCgoKCgoKCgoKCgoKCj/wgARCAZpAuADASIAAhEBAxEB/8QAHAABAAMAAwEBAAAAAAAAAAAAAAEEBwMFBgII/8QAGgEBAAMBAQEAAAAAAAAAAAAAAAEDBAIFBv/aAAwDAQACEAMQAAAB1QAAAAAAAAAAAAAAAAAAAAAAAAAAAAAAAAAAAAAAAAAAAAAAAAAAAAAAAAAAAAAAAAAAAAAAAAAAAAAAAAAAAAAAAAAAAAAAAAAAAAAAAAAAAAAAAAAAAAAAAAAAAAAAAAAAAAAAAAAGTMuGosuGosuGosuGosuGosuGosuGosuGosuGosuGosuGosuGosuGosuGosuGosuGosuGosuGosuGosuGosuGosuGosuGosuGosuGosuGosuGosuGosuGosuGosuGosuGosuGosuGosuGosuGosuGosuGosuGosuGosuGosuGosuGosuGosuGosuAAAAAAAAAAAAAAAAAAAAAAAAAAAAAAAAAAAAAAAAAAAAAAAAAAAAAAAAAAAAAAAAAAAAAAAAAAAAAAAAAAAAAAAAAAAAAAAAAAAAAAAAAAAAAAAAAAAAAAAAAAAAAAAAAAAAAAAAAAAAAAAAAAAAAAAAAAAAAAAAAAAAAAAAAAAAAAAAAAAAAAAAAAAAAAAAAAAAAAAAAAAAAAAAAAAAAAAAAAAAAAAAAAAAAAAAAAAAAAAAAAAAAAAAAAAAAAAAAAAAAAAAAAAAAAAAAAAAAAAAAAAAAAAAAAAAAAAAAAAAAAAAAAAAAAAAAAAAAAAAAAAAAAAAAAAAAAAAAAAAAAAAAAAAAAAAAAAAAAAAAAAAAAAAAAAAAAAAAAAAAAAAAAAAAAAAAAAAAAAAAAAAAAAAAAAAAAAAAAAAAAAAAAAAAAAAAAAAAAAAAAAAAAAAAAAAAAAAAAAAAAAAAAAAAAAAAAAAAAAAAAAAAAAAAAAAAAAAAAAAAAAAAAAAAAAAAAAAAAAAAAAAAAAAAAAAAAAAAAAAAAAAAAAAAAAAAAAAAAAAAAAAAAAAAAAAAAAAAAAAAAAAAAAAAAAAAAAAAAAAAAAAAAAAAAAAAAAAAAAAAAAAAAAAAAAAAAAAAAAAAAAAAAAAAAAAAAAAAAAAAAAAAAAAAAAAAAAAAAAAAAAAAAAAAAAAAAAAAAAAAAAAAAAAAAAAAAAAAAAAAAAAAAAAAAAAAAAAAAAAAAAAAAAAAAAAAAAAAAAAAAAAAAAAAAAAAAAAAAAAAAAAAAAAAAAAAAAAAAAAAAAAAAAAAAAAAAAAAAAAAAAAAAAAAAAAAAAAAAAAAAAAAAAAAAAAAAAAAAAAAAAAAAAAAAAAAAAAAAAAAAAAAAAAAAAAAAAAAAAAAAAAAAAAAAAAAAAAAAAAAAAAAAAAAAAAAAAAAAAAAAAAAAAAAAAAAAAAAAAAAAAAAAAAAAAAAAAAAAAAAAAAAAAAAAAAAAAAAAAAAAAAAAAAAAAAAAAAAAAAAAAAAAAAAAAAAAAAAAAAAAAAAAAAAAAAAAAAAAAAAAAAAAAAAAAAAAAAAAAAAAAAAAAAAAAAAAAAAAAAAAAAAAAAAAAAAAAAAAAAAAAAAAAAAAAAAAAAAAAAAAAAAAAAAAAAAAAAAAAAAAAAAAAAAAAAAAAAAAAAAAAAAAAAAAAAAAAAF6xw279vDHM674nK564nKOJyjico4nKOJyjico4nKOJyjico4nKOJyjico4nKOJyjico4nKOJyjico4nKOJyjico4nKOJyjico4nKOJyjico4nKOJyjico4nKOJyjico4nKOJyjico4nKOJyjico4nKOJyjico4q92rFa1Ut9AXAAAAAAAAAAAAAAAAAAAAAAAAAAAAAAAAAAAAAAAAAAAKtqrzWtVbQHVgAAAAAAAAAAAAAAAAAAAAAAAAAAAAAAAAAAAAAAAAAACraq81rVW0B1YAAAAAAAAAAAAAAAAAAAAAAAAAAAAAAAAAAAAAAAAAAAq2qvNa1VtAdWAAAAAAAAAAAAAAAAAAAAAAAAAAAAAAAAAAAAAAAAAAAKtqrzWtVbQHVgAAAAAAAAAAAAAAAAAAAAAAAAAAAAAAAAAAAAAAAAAACraq81rVW0B1YAAAAAAAAAAAPo+XY9nm683PsbOXvwr308T4CPe1e48Y9J1enjr31GrmAAAAAAEyn5dl2Obrzj2VrL14SNAcTn73lTuPHPRdZq4oJaeYAAAAAAAAAAAAq2qvNa1VtAdWAAAAAAAAAJi3yqXfU9/wCNd5nvrTxb0/LN0CUwRMBKBV6P006ec1pap0ftU+HW6ntUB0CAu8zTver7zxbvN95ZeNcgzdAJgTASgU+j9RGrnNamqef9qjxkWK/s0hIAAAAAAAABVtVea1qraA6sAAAAAAAJSh9+zyd9Z6/kn5bSGTsBAAkAAAAEcfkPZzq4yl7Xxv1WX4n79tE9X636n5XUIzdSgTAAkACUESgSiTh8b7hsryp6/wAj9Vm+Ezp5+UxAAAAAAABVtVea1qraA6sAAAAAAAffz7nJ399yfI6wqkSQEgAAAAAAJiUOm7lZHU9sCJVzCRASAmJRCYASSRASBKCJ6Dvl0ZZHs/F/XY0TGvkIAAAAAAKtqrzWtVbQHVgAAAAACY7Kue59Z8/Xx2xExm6ABIAAAAAAAAAAAAAAAAAAAAAAE+M9nx668ti9R+xyB1AAAAAACraq81rVW0B1YAAAAABOheY938/eQ8HRMBMTACQBKIcHVX8948w0R6d0faZ+rCVEwEgAAAAAAEkQq9Xfz3zzC+PTul7SieYUdAkAACUSjp/A6rn30Gfqh71AAAAAACraq81rVW0B1YAAAAAmLnM+27WHxG0TVMBMxMIBI6m3m35Lp+L6XNMHqVEpJhDvPXZnzeXbqLpu4+a0hV0AAAAAOlu5u+Q6n4+lzfXyn064THUPv4Q7/wBbmdjyrdOdZ2XzOkK+gAAJ6Tu/m7jK3PX+3xhMAAAAAKtqrzWtVbQHVgAAAAD0/mfd+dZ3Y+S1wEgAD5mKOfXKH1uSJPSq+RzMxKUEImYmJ5NAzy959mjI+vktcCJAAAJ45jrPA2an1+QN1YAAAHNoebdt5tmgon5PWiYASACPE9B7XxP2GQN1YAAAACraq81rVW0B1YAAAAA0vN9R8K76Hz2kmAEgOm7rxW6rzw+xyTCCYIJhKYCPqBMB7zu/E+2+O1wMNoAAE+e9B4T0aulhH12OREgAAASgaF2nkPX/ABuwMfYJAA67O9Qy/wCkzQPaoAAAAAVbVXmtaq2gOrAAAAALGnZlpnz2j6HhXwEgAM+0HOvZp68j6bKTAEAAAAOz0TNtJ+a0wPGvAAAnNdJzT289OT6POAAAAAEu793n2hfL6oHkXAAAfOXalmHv5uEe/QAAAAAq2qvNa1VtAdWAAAAAWdMzLTfndH1Ex4d4JAAZ1oud+1R1o+kzShIIAAAAXtJzbSfm9MDxbwAAGaaXmnuUVB9FmAAAAAEy7TQs90L5jSiY8e4EgARmGn5h72fhH0GcAAAABVtVea1qraA6sAAAAAs6ZmemfO6PqJjw7wSAAzrRc69qjr4l9LmgQAAAAAvaTm2k/N6YHi3gAAM00vNPcpqD6LKAAAAAEu00LPdC+Y0h494AAEZhp+Ye9n4R9BnAAAAAVbVXmtaq2gOrAAAAALOmZnpnzuj6iY8O8EgAM70TOvao64fSZiYkEAAAAL2k5tpPzemB4t4AADNdKzX3M9MfRZwAAAAAl2mhZ7oXzGoPHuAAAjMNPzD3s/CPoM4AAAACraq81rVW0B1YAAAABZ0zM9M+d0fUTHh3gkABnWi537VHXD6bMggEAAAAL2k5tpPzemB4t4AADNNLzT3KKg+izAAAAABLtNCz3QvmNIePeAABGYafmHvZ+EfQZwAAAAFW1V5rWqtoDqwAAAACzpmZ6Z87o+omPDvBIADOtFzr2qOvhP0uaEwBAAAAC9pObaT83pgeLeAAAzTS809yioPosxMAAAAAS7TQs90L5jSHj3gAARmGn5h72fhH0GcAAAABVtVea1qraA6sAAAAAs6ZmemfO6PqJjw7wSAAzvRM69qjr0Ppc0oAQAAAAvaTm2k/N6YHi3gAAM10vNPcopj6LNKEggAAAEu00LPdC+Y0h494AAEZhp+Ye9n4R9BnAAAAAVbVXmtaq2gOrAAAAALOmZnpnzuj6iY8O8EgAM60XO/Zp60fS5QAAAAAL2k5tpPzemB4t4AADNNLzT3KKg+izTEpQIAAABLtNCz3QvmNIePeAABGYafmHvZ+EfQZwAAAAFW1V5rWqtoDqwAAAACzpmZ6Z87o+omPDvBIADOtFzr2qOuH0mYAAAAAC9pObaT83pgeLeAAAzTS809yioPosxMSCAAAAS7TQs90L5jSHj3gAARmGn5h72fhH0GcAAAABVtVea1qraA6sAAAAAs6ZmemfO6PqJjw7wSAAzrRc69qjrh9JmAAAAAAvaTm2k/N6YHi3gAAM10vNPcopj6LNMEggAAAEu00LPdC+Y1B49wAAEZhp+Ye9n4R9BnAAAAAVbVXmtaq2gOrAAAAALOmZnpnzuj6iY8O8EgAM60XOvap64fSZQAAAAAL2k5tpPzemB4t4AADNNLzT3KKg+izTExIIAAABLtNCz3QvmNIePeAAAy/T8w97Pwj6DOAAAAAq2qvNa1VtAdWAAAAAWdMzPTPndH1Ex4d4JAAZ1oud+1R1o+kzAAAAAAXtJzbSfm9MDxbwAAGaaXmnuUVCfo80JgCAAAAS7TQs90L5jSHj3gAARmGn5h72fhH0GcAAAABVtVea1qraA6sAAAAAs6bluofP6PuJjwbwSAAzrRc09uiomPpMwQAAAAAv6RmOm/OaQ8S8AABmmlZf7ufjH0edBAIAAABLtNCznRvmdIeNeAABGX6XmP0Gb5HvUAAAAAKtqrzWtVbQHVgAAAADQM/7PDZokRPyGsIkAJilnHd9H9XkgelWAAAAAA0XO+582z3g+U1hEgBMdVn/Z9X9dkDfWAAAAAB96XmXovLs9pCfldcJEJEJ+JdH4e/R+wxwNvAAAAACraq81rVW0B1YAAAAAB33tMtueTbpTy/a+Ff2brutifReS6nrvaoE+1T8pgAAAAAAmCXpPY5Xf8AHt0Z5vsfC0do6vq5el8Z1lL3KII9iiZiUwIAAAAATMTL1fqcq7PxL9Dec7DxbezdV1cvSeGoVfeoIetTIiQAAAAFW1V5rWqtoDqwAAAAAAJBAAAAAAAAAAABMAAAACYJBAAAAABMCYJBAAAAAAAAABVtVea1qraA6sAAAAAAAAAAAAAAAAAAAAAAAAAAAAAAAAAAAAAAAAAAAVbVXmtaq2gOrAAAAAAAAAAAAAAAAAAAAAAAAAAByytc+1Xqsn5xd50dukI6AAAAAAAAAAAAAVbVXmtaq2gOrAAAAAAAAAAAAAAAAAAAAAAAAAAFmtZR+hPvj5M/m4t5j1Hl9G8FgAAAAAAAAAAAACraq81rVW0B1YAAAAALBwd/o3qa8mUddtExz+c/jc+m6tz3vdY+uasb8z+ieumcBd70dmqH18z1PJ6PWOKMl7HWY4oxnzf6L66esAej85ZqEuos+r1HmjJbetOKMT8/+i+pnvBnb9TZqiZ7WXV99q/cVZck+NeRxg3U/o7zc2YrY+PuzT+g+Tj5M/m4v5/Rva2aMl5diRzgnV/o3M+rM9Js0xL3cceM9DrtmrNktLZzn881v0Nl/d3iEx3oCAAAAACraq81rVW0B1YAAAAA1XLf0HxntcHNi9ebQO9/Pnad3724uWvL8ec8j4OzRvvZ/nndueOPCP0Xi3Vnme66bW+7vW/f14OnFT8156bdvudO/O+lc1e5wj9B5XHHhfUeW2+y/vuLny+nJHQ+fi7ZoukfnLXuKO6wz9F4yeX2zE/0N11Y8b7LDOKrnP5CLdet93hfzzXYmtZ6v/QfJx8mfzI8nVyezRo3rcM7LqzfeLkmnH+faXp/MaPR9dsHSd5RijxsZH337v0eQffV/wCjvnyPsKcWNeU2/ELtodXAAAAAKtqrzWtVbQHVgAAAAFr9Bfn39B15J/PX6F/PUK6Ju1b92PXdjm83C+i77odPoTtOK7TxT6jItdyTirxm+YLv/Vt3ynq+sqzeSn0rvvzXadih3XhO/wDCy8Z+g8A/QU2ffjPZ9RxR5d6RNnm+8sEd3mXsM3nrym0Yzcsv/QXXea9RTk8t0epTM4d0P6O8p1djdnj5LNP6D5OPkz+Zjnk/T+Zv9COT4+57/QvNw82fzMe8z6fzl2/feb4+6cGO+Q9R5fR6CYmevZ67juxU4+D89/ob8+zZWFmoAAAABVtVea1qraA6sAAAAAtfoP8APn6CryfX56/Qn57hWmJu1b92PXdjm83Deh77odHoNoxfaOavUZJreSV0+L3PC9Csv07L9Qo1Zfz5PofP37vl9dqdTOj+TR036C/PeqcV+7x3YunrzYQ7fqL9xPczPStL8JzzQT7WevET2nUo7D0PjuRH6CtdN3OfBjPnvS+av3/oPk4+Sjz8W8z6bzF++fvi5eu/0NzcPNm87HvKer8jfv8A0Jb8N7mnDlfg9/xa3V1H07fq71em0L9GCj+ftSy2zTA70AAAAAKtqrzWtVbQHVgAAAAFr9BfnXYeM3qvz3reOIiYd6d+7LwHe04Mu6KzWv3Npxb30ValkmhY5VV1fLxTdr2j0/5y9vVl1Sp0vacU81vrOoR6vK63ju9EW6izTuvd/nb3VWTTaPW9hzTzWuq6VPr8aeXs0dlvP509G62rrPP93XlqdnNY7rq/K55Nlf6q/V+r9F8nju2z4cx8v2XXX7o5eOZn9Ec/iu8z4M38l2XWX7rm2YPajj9CfGfeppyW71Gkjvum8j4CbZqF+wIkAAAABVtVea1qraA6sAAAAACSJII+iJj6T8zJEEkJTIER9Ij5+olKPqJiExEwQTAhMJifr5+omI+oiYTMoEkfTk+fpMfCQ+vj6ETEASmEkxKJEkShCREfUEJiJAAAAAAVbVXmtaq2gOrAAAAAAAAAAEwJQlKBMEAAAAAAAAAAAAAAAAAAkEAAAAAAAAAAFW1V5rWqtoDqwAAAAAAAAAAAAAAAAAAAAAAAAAAAAAAAAAAAAAAAAAABVtVea1qraA6sAAAAAAAAAAAAAAAAAAAAAAAAAAAAAAAAAAAAAAAAAAAVbVXmtaq2gOrAAAAAAAAAAAAAAAAAAAAAAAAAAAAAAAAAAAAAAAAAAAFW1V5rWqtoDqwAAAAAAAAAAAAAAAAAAAAAAAAAAAAAAAAAAAAAAAAAABVtVea1rrOTmq+oOu76gL6gL6gL6gL6gL6gL6ghfUEr6gL6gL6gL6gL6gL6gL6gL6gL6gL6ghfUEr6gL6gL6gL6gL6gL6gL6gL6gL6gL6gL6ghfUEr6gL6gL6gL6gL6gL6gL6gL6gL6gL6ghfUEr6gL9Xi4+eOFCvIAAAAAAAAAAAAAAAAAAAAAAAAAAAAAAAAAAAAAAAAAAAAmAAAAAAAAAAAAAAAAAAAAAAAAAAAAAAAAAAAAAAAAAAAAAAAAAAAAAAAAAAAAAAAAAAAAAAAAAAAAAAAAAAAAAAAAAAAAAAAAAAAAAAAAAAAAAAAAAAAAAAAAAAAAAAAAAAAAAAAAAAAAAAAAAAAAAAAAAAAAAAAAAAAAAAAAAAAAAAAAAAAAAAAAAAAAAAAAAAAAAAAAAAAAAAAAAAAAAAAAAAAAAAAAAAAAAAAAAAAAAAAAAAAAAAAAAAAAAAAAAAAAAAAAAAAAAAAAAAAAAAAAAAAAAAAAAAAAAAAAAAAAAAAAAAAAAAAAAAAAAAAAAAAAAAAAAAAAAAAAAAAAAAAAAAAAAAAAAAAAAAAAAAAAAAAAAAAAAAAAAAAAAAAAAAAAAAAAAAAAAAAAAAAAAAAAAAAAAAAAAAAAAAAAAAAAAAAAAAAAAAAAAAAAAAAAAAAAAAAAAAAAAAAAAAAAAAAAAAAAAAAAAAAAAAAAAAAAAAAAAAAAAAAAAAAAAAAAAAAAAAAAAAAAAAAAAAAAAAAAAAAAAAAAAAAAAAAAAAAAAAAAAAAAAAAAAAAAAAAAAAAAAAAAAAAAAAAAAAAAAAAAAAAAAAAAAAAAAAAAAAAAAAAAAAAAAAAAAAAAAAAAAAAAAAAAAAAAAAAAAAAAAAAAAAAAAAAAAAAAAAAAAAAAAAAAAAAAAAAAAAAAAAAAAAAAAAAAAAAAAAAAAAAAAAAAAAAAAAAAAAAAAAAAAAAAAAAAAAAAAAAAAAAAAAAAAAAAAAAAAAAAAAAAAAAAAAAAAAAAAAAAAAAAAAAAAAAAAAAAAAAAAAAAAAAAAAAAAAAAAAAAAAAAAAAAAAAAAAAAAAAAAAAAAAAAAAAAAAAAAAAAAAAAAAAAAAAAAAAAAAAAAAAAAAAAAAAAAAAAAAAAAAAAAAAAAAAAAAAAAAAAAAAAAAAAAAAAAAAAAAAAAAAAAAAAAAAAAAAAAAAAAAAAAAAAAAAAAAAAAAAAAAAAAAAAAAAAAAAAAAAAAAAAAAAAAAAAAAAAAAAAAAAAAAAAAAAAAAAAAAAAAAAAAAAAAAAAAAAAAAAAAAAAAAAAAAAAAAAAAAAAAAAAAAAAAAAAAAAAAAAAAAAAAAAAAAAAAAAAAAAAAAAAAAAAAAAAAAAAAAAAAAAAAAAAAAAAAAAAAAAAAAAAAAAAAAAAAAAAB//EADMQAAAFAwMCBQQDAAEFAQAAAAABAgMEBRMwFjI0BjMQERIxQBUgNWAUIVDAIiMkJUGQ/9oACAEBAAEFAv8A8KNWqGrVDVqhq1Q1aoatUNWqGrVDVqhq1Q1aoatUNWqGrVDVqhq1Q1aoatUNWqGrVDVqhq1Q1aoatUNWqGrVDVqhq1Q1aoatUNWqGrVDVqhq1Q1aoatUNWqGrVDVqhq1Q1aoatUNWqGrVDVqhq1Q1aoatUNWqGrVDVqhq1Q1aoatUNWqGrVDVqhq1Q1aoatUNWqGrVDVqhq1Q1aoatUNWqGrVDVqhq1Q1aoatUNWqGrVDVqhq1Q1aoatUNWqGrVDVqhq1Q1aoatUNWqGrVDVqhq1Q1aoatUNWqGrVf8ADDWUkabaRbSLaRbSLaRbSLaRbSLaRbSLaRbSLaRbSLaRbSLaRbSLaRbSLaRbSLaRbSLaRbSLaRbSLaRbSLaRbSLaRbSLaRbSLaRbSLaRbSLaRbSLaRbSLaRbSLaRbSLaRbSLaRbSLaRbSLaRbSLaRbSLaRbSLaRbSLaRbSLaRbSLaRbSLaRbSLaRbSLaRbSLaRbSLaRbSLaRbSLaRbSLaRbSLaRbSLaRbSLaRbSHkkSY+39akbY+39akbWNv61I2x9v61I2x9v61I2x9v61I2x9v61I2x9v61I2x9v61I2x9v61I2x9v61I2x9v61I2x9vyiLzCIj6wilumE0pAKmsEPp8YfT4wOmsGFUpAXSnCDkN5seRlnIjMNwn1hFKcMJpTZAqawPp8cfT4wVTWAqlJDlLcIORXmwf8AXy5G2Pt+QzGceNilEQbjtN43WGnQ9Skh+M6zjYiuvBiloINstt43YzTgfpZB+O4yfyJG2Pt+Mwwt5UemoQCIiLMZEYk01DgfYcZV90eO48canttj2zmklFKpiVB5lbSvjSNsfb8WFTzcDbaWy+E4hLiZtONH2eQhU71hCSQn4TrSHUzYCmfjSNsfb8NKTUcGATfx50AnAojSaEqWqDBSyXxp1P8AUDLyP4cjbH2/CSk1qp8NLBfInQikFCiFHT8ioQieBkaT+FI2x9vwfIxToZMo/wBSpQ7hf/fgyNsfb8GlRP8AXqkT0H8GRtj7fgQWL7ySJKf9ZaSWiWwbDvwJG2Ptz+4gR7DP+xU2LzPwJG2Ptz0pi4/lcebbC6mykHVkgqskN1NlQbfbc+K5IabCqoyQOrJCaskIqTCgh1Dmaos2ZGeRtj7c9NatRsch9DCZVRccCjNX2pM0iPUXGwxIQ+n4EmS3HTIqDrpqMzP7EqNJxqk4g2XkPJx1Vn1x88jbH25ojd2R7Y50so6XHFOqwNLU2qFNJ8s06aTJOLNxWBl1TS4cpMhOJRepL6Lb2aRtj7c1Fb814psgo7S1mtWJCjQqDJKQ1kqEqw2Zmo8TTim1w3ykNYqw36X80jbH25qOj0xcJn5FOfN9/JBfsPp/ssS1ElMp03nslOfsvlirSfNjNI2x9uaIn0RsNUdtx81KeuR8VYc9LOanO3Y2Gop9cPNI2x9uVJeakf0jDWl+b+ajL8pGKrL9UrNRF/8AXheLzazSNsfblY7xe2GpH5zM1OPymYph+crNST8peFexW7LI2x9uWP3yxVDmZoPMxSuRmpvMwq2u9zLI2x9uWP3yxVDmZoPMxSuRmpvMwq9nu7lkbY+3LH75e2GoczNB5mKVyM1N5mFXs93csjbH25Y/fL2w1DmZoPMxSuRmpvMwq9ne7lkbY+3LH75YqhzM0HmYpXIzU3l4VezvdyyNsfblj98vbDP5maDzMUrkZqbzMKvZ7u5ZG2Ptyx++WKoczNB5mKVyM1N5mFXs73csjbH25Y/fL2w1DmZoPMxSuRmpvMwq9ne7lkbY+3LH75e2GoczNB5mKVyM1N5eFXs73csjbH25Y/fLFUOZmg8zFK5Gam8zCr2d7uWRtj7csfvliqHMzQeZilcjNTeZhV7O93LI2x9uWP3yxT+Zmg8zFK5Gam8vCr2d7uWRtj7csfvliqHMzQeZilcjNTeXhV7O93LI2x9uWP3yxVDmZoPMxSuRmpvMwq9ne7lkbY+3LH75e2GoczNB5mKVyM1N5mFXs93csjbH25Y/fLFUOZmg8zFK5Gam8vCr2d7uWRtj7csfvl7YahzM0HmYpXIzU3mYVez3dyyNsfblj98vbDUOZmg8zFK5Gam8zCr2e7uWRtj7csfvliqHMzQeZilcjNTeZhV7O93LI2x9uWP3y9sNQ5maDzMUrkZqby8KvZ7u5ZG2Ptyx++XthqHMzQeZilcjNTeXhV7O93LI2x9uWP3y9sNQ5maDzMUrkZqbzMKvZ3u5ZG2Ptyx++Xthn8zNB5mKVyM1N5eFW13u5ZG2Ptyx++XthqHMzQeZilcjNTeXhVtc7mWRtj7cqD9K0H5pwyVeqRmjq9D5e2BX9JcP1OZoCvTLwvK9LSvfLI2x9uamO3I2Ca7Zjn8CA7djYKm9ai50n5HGcJ1nBV3fRHzSNsfbmgSLD6VEovvqkm678CmybLpfeZ+RVGTfe+BSpNtX3rUSEzHjfezSNsfbngTTZCFpcT9h/wBFUJ/q+HT5/oCT9RfYpRIKoTr3w6fPL7nHEtJnzDkKzyNsfb8BiQ4wbNVSYTOYUDmsEHqo2QkS3H/iEGJTjAaqqDCZzBhU9gg9VUkH5Lj5/EjzXWA1VG1AprBhU9hIeqoffW+r4EjbH2/rUjbH2/rUjbH2/rUjbH2/rUjbH2/7MeI9ID1PlMp+fI2x9v8AsNp9S4TKWI5kRlWmEsVD50jbH2/7EbkI2DqP8l86Rtj7f9iPyG9g6j/JfOkbY+3OXmYi0mXILTsgSKLLZJSVJMRabKkhPTskyfoUtsnG1tq+1tCnDZosxwtOyfJ2hzGycbW0f2tMuPG3QpigfT0gP0aY0SkqQf2JSajYo8x0J6ekmS+n5RB+nSmPGPyG9g6j/JssuPKaocxYVQJZCTAkxvuZYdeNqhTFjTsnydocxAeYdZ+DI2x9uZlpb7tLpLUVHjUKazMRTKG2wZF5eMyGzKRVKeqC740mlLmHFiMxk+MqIzJTVqauC540ijHJDEdphPjOgMS0VGC5Ce8KdCXNfg09iIj7KhSY8lDzZtOx+Q3sEqmKnVeNGajI8FJJRV+kk2nxpFEuhlltlPi8w2+msUY4/wACRtj7c3TMIkMB11DSTrsElRpLUhPgpRJJytwkKiTWJZCoRUy4riDbcFJh/wA2W02lpClElNR6gMlfV5nnBr7qVsupeblMJkMSmTjyBQYH8yQkiInnUMtzuoHDV9YmedPr5+tKiUmpxEzIq0G2sUOKUeCKvWCiKVXJphuvy0iFX2HRIqMZpmQ5eej8hvYPYTa5Hjq1L/dOqLM1IdQTjc1qzKHT0D+S+X9eE+usx16if86fXGZKgZeZV+B/EkZpG2PtyoL1KioJuOK7OVJliny1xJDSvW2OppqlPiM8th2C/wDyYo6hbJupjpiNahDqiYppvx6UkmaR1Wz6ZAokYo8AdUTDN7x6Zkm9DHUbNmohjsitNrRUftj8hvYOpZpsM+FNfOPML2HUafTVBRo/8eAOpZpx4/n4F79OzTkxhXY/8in5pG2PtyxuSjYrbJ7/AIU7hCt/k/Dp38YOqOeKcn0whUaQma/ptsabbGm2xTqOmE+OrE/+Gwn1PMl6WxLoSJMnTjY022NNtil0xMAx1an/ALooEwpMIS4bMpL3T0dQe6cdISKVLYB+EfkN7B1Kr1VLwRvZ7Q6n/Ix0+p9ovJsdTr9VR8ell+U8Pl5tOJ9K8sjbH25YvIRsVtkd/wAKdwhW/wAp4dOfjB1Rzi94fFD86Oyv6pEH1OIPqcQfU4gOqRB1BU2pSIfLT7ByoRm3PqkQfVIg+qRB9UiA6rEIq9UETXhFkORXYVfZcJuUw4PPwMVaktSkOJNtcfkN7B1F+U8Eb2e0OpvyMTlo2jqFP/svHpj8kHNkj+38sjbH25Y3IRsVtkd/wp3CFb/J+HTv4wdU84UZ29Th1ZHMnfuSfpVEWTkYdSRzanjzwEo0hubIbEWvSW1xnkyGR1G0TdRj8hvYOovyngjuM9odTfkUn6VRVk5HHVbBk/49KMHcE5wmonvmkbY+3LG5CNitsjv+FO4Qrf5Pw6d/GDqnnDpeYSVCZGRKZn0p+Iry8I1PkyDY6cL0VWAqA8OmJfrYFShImsTKdIiq8h5GYiUyTJUjpxHoqERcOQhJrUjp1425VOkxj8EJU4qksHHgjqZZKqMfkN7B1F+U8G97PaHU35EdMSycjCfFRLjzoD8RYg09+YuFGTFjjqmX6WM0jbH25Y3JRsVtkd/wp3CFb/J+HTv4wdU88NrNtdJqaJbYMiMLisLCIrCAREXh1TIQ4+IshcZ6m1Bua0DSRhUOOoIjMoHl5eHUUhL86mrS3OQZKIyIw9T4rw+iwfOPBjx/CoS0RGH3Teejd9vYOovyng33Ge0OpvyIhyFxX6fNbmMhSSUP4UfzSkkkKlPbhMypC5L+aRtj7cpH5HTKuw8zU6uwwyZ+avCh1Zn+PMqsdhuQ6b73h0/U0MIeqUVtupSv5kvwSo0Kg9QOthmtQ3QmdGMLqEVAfrsRsTq6+8DMzPwadWyuF1EoiarENwJnRjC6lEQJFeitifWpEovCBV5EQMdQR1kipw1D+bH8l1SGgpfULaSmS3ZSwR+QpVXYcYkVOKyifI/lSvAv6Ok1dhcd+pRWUVCScuX4R5DkZyH1EXk3VYax/NjeTtVhtib1EXk++5IXnkbY+3/AI8Xn8Y/lSNsfb/ll/nyNsfb+tSNsfb+tSNsfb+tSNsfb+tSNsfb+tSNsfb+tSNsfb+tSNsfb+tSNsfb+tSNsfb+tSNsfb+tSNqHDSV4xeMXjF4xeMXjF4xeMXjF4xeMXjF4xeMXjF4xeMXjF4xeMXjF4xeMXjF4xeMXjF4xeMXjF4xeMXjF4xeMXjF4xeMXjF4xeMXjF4xeMXjF4xeMXjF4xeMXjF4xeMXjF4xeMXjF4xeMXjF4xeMXjF4xeMXjF4xeMXjF4xeMXjF4xeMXjF4xeMXjF4xeMXjF4xeMXjF4xeMXjF4xeMXjC3DUX/DaP/8QAKhEAAQMDBQACAwACAwEAAAAAAQACAxIgMhETMDFRBCEQQVAiQBRSoHH/2gAIAQMBAT8B/wDLJE1paqB4qG+Khviob4qG+Khviob4qG+Khviob4qG+Khviob4qG+Khviob4qG+Khviob4qG+Khviob4qG+Khviob4qG+Khviob4qG+Khviob4qG+Khviob4qG+Khviob4qG+Khviob4qG+Khviob4qG+KVoDVDj/NmwKhwH82bAqHAfzZsCocB/NmwKhwH82bAqHAc1BW05bRW0UWkcIYStpy2itoqk802BUOA4//AImxeoNAWlpYCnxeLTTv8gapsXqDALi0FOi8XXHNgVDgOJrC5NYG8TmByc2lNbUU1unE5gcnMLeKbAqHAcLW1JrdOQjVAachbqnNp4ZsCocBwD7Oia2n/be3UI/X1wTYFQ4Dgib+76gtwIOB46wtwKsXyt/fBNgVDgLx9nRAaWk6J8hPVjZdO0Dre52iMmvVjZCO0Dra7rgmwKhwF8Q+7pH1G6N2l8jtTdG/S6Qfd82BUOAvh7tkOgu0/EZ1Fsh0HBGdRbNfNgVDgL4bZuuCHq2brgh6tmvmwKhwF8Ns3XBD1bN1wQ9WzXzYFQ4C+G2brgh6tm64IerZr5sCocBfDbN1wQ9WzdcEPVs182BUOAvhtm64IerZuuCHq2a+bAqHAXw2zdcEPVs3XBD1bNfNgVDgL4bZuuCHq2brgh6tmvmwKhwF8Ns3XBD1bN1wQ9WzXzYFQ4C+G2brgh6tm64IerZr5sCocBfDbN1wQ9WzdcEPVs182BUOAvhtm64IerZuuCHq2a+bAqHAXw2zdcEPVs3XBD1bNfNgVDgL4bZuCHq2bgh6tmvmwKhwF8btDbI6o8EbtCtbJHangjdobNVI7U3zYFQ4DgZJT2qwqwny6/Q4mSaKoKsJ8mq14WS/oqsKsJ0mq1vmwKhwH82bAqHAfzZsCocB/un5B1QOvPNgVDgP9wopmI55sCocBwOn8Qncv+QNEZ3JvyD+011X4fMGrfcmzn9prqvw+cN6W+5N+Qf2gdftE6J3yD+lvuTfkeo9Irepbot9yjm1+j+HPp7TvkH9LfcmT1cE2BUOAvndoNFGysowefhkOvakjpXx3fpSupamio6IRNCmjAGoUDtDopXaNTG1lCNoU0YH2FA770XyD9KJocftbTVsNX6RUUVX2U+EafX4a7UKV9RUUWv2UYWlObSdFC+oXzYFQ4C/5C+P2ij2m9BT4qDJfIP0mkjpVvRc8qIGpfITSRiq5ES8qFpqUrKgi1zUJXBNn17/AAVHiEekUzFFMxH4nyXx75sCocBf8hfH/B7TcVPioMlO3UKN1J1WoP2tQO0JGn6CnbqNVG6koELUDtCRp6RcB2tQUWNR7TMUUzEfg9qPFPbSdFE8EaFEgJ7qjqvjt0Gt82BUOAv+QNVANEUWHVDpSjVqgaatVopIP+qpcFo4qKIj7KI1T4COlo4KlxUMRb9lTRl3SpcF/kUyEntdItOqaNG/gtOqjH+KkiqRY5q0cUyEntC+bAqHAfzZsCocB/NmwKhwH82bAqHAfzZsCocB/NmwKhwH82bAqOZrW6Fb7VvtW+1b7VvtW+1b7VvtW+1b7VvtW+1b7VvtW+1b7VvtW+1b7VvtW+1b7VvtW+1b7VvtW+1b7VvtW+1b7VvtW+1b7VvtW+1b7VvtW+1b7VvtW+1b7VvtUkzXN0H/AI2//8QALhEAAQIFAwQBAwQDAQAAAAAAAQACAwURIDEEEjAQITIzEyJCUBVAQVEjYaBD/9oACAECAQE/Af8AlkaBRUCoFQKgVAqBUCoFQKgVAqBUCoFQKgVAqBUCoFQKgVAqBUCoFQKgVAqBUCoFQKgVAqBUCoFQKgVAqBUCoE4dk0/T+NdhNx+NdhNx+NdhNx+NdhNx+NdhNxy1AT9ZBZlydNoAwv1iEmzaAcpmtgvw5dji+oGU/WQWZcnTaAML9YhJs2gHKZrIL8OQIPK7CbjjfEawVctROA3tDUXWRYvkboWriwvErTTcO7RU17Xirer4jYYq5amcAdoSiauLE8jbhQtZFhYK003a76Yia8PFRxuwm44tTq2acVctTrH6g9+LTat+nPZaXVs1Le2Vq9YzTt75Wo1T45q7i02tiac9sLT6tmobVqpwuwm44dZqhpmV/lRYrortzuSFGdCO5qixXRXbnckGM6C7c1aTVDUMqOF2E3HBFiCEzeVqtQ7UP3H93pNSdO+qY8RG7hwOwm44Jxqan4m3w9NFieIX6dH/AKT9NFh+Q42aaK/xC/To/wDSiaeJD8hfJ9T/AOR4HYTcXxH7GlyjP+R5dbChOiu2tWkljIQq/uUABjoWg5WqlsOL3b2KjQXQXbXXwYLoztrVpZbDhd3dyg0DHRzQ7K1crZF7s7FRYToTtrrdPF+KIHJrtzQRe7Cbi+aRdkHtaBXspfpBAZU5umGlEeH/ALR7WgbjQLQ6Qadn+7pjpBGZuGRdLYnyQBe7Cbi+dO7NFsuh/JHAVL5jC+KMbZZC+SMK8GvhfFGItkrqsIvdhNxfOsttk3sPBOR/kFsm8zwTj3WyT7r3YTcXzryFsm9h4Jz5i2S+R4Jz7RbJfuvdhNxfOvIWyb2HgnPmLZL5HgnPutkv3Xuwm4vnXkLZN7DwTnzFsl8jwTn3C2S/de7Cbi+deQtk3sPBOfMWyXyPBOfcLZL917sJuL515C2Tew8E58xbJfI8E591sl+692E3F868hbJvYeCc+YtkvkeCc+0WyX7r3YTcXzryFsm9h4Jz5i2S+R4Jz7rZL917sJuL515C2Tew8E58xbJfI8E591sl+692E3F868hbJvYeCc+YtkvkeCc+0WyX7r3YTcXzryFsm9h4Jz5i2S+R4Jz7rZL917sJuL515C2Tew8E58xbJfI8E59otkv3Xuwm4vnTe7TbJR9ZPBOh9YNskb9TjwTn2i2SN8je7Cbi+Yab5oXbKIoaGyWacwYdTk8Ez0/zQ+2Qj26gV7BS/T/BC78E00xiw9wyLAKmgWg0/wAEKl7sJuODWSwRvqZlRNFGZ/CZo4z8NWjlfxndF4tbLBFO6HlP0UZmWpmijPPitHLBCO9+eLWSred8JP0UZuWqHoYzz4rRyxsH6n54HYTcfjXYTcfjXYTcfvS/9g7Cbj98Mc7sJuOAv/pbyt63oP6udRbyg9Vr0c6i3lB/TCMRbyg/rvoFvKa/oTRb1vKa/gdhNxe9AVWzoGVTm0TE40Q7rYnNTCnmiAqg0J7UwqImCq2hbAj0a3+0WDoMJxTGVRYERRMN7sJuL4iZ0KGFEwmZURBbnKrkwd1EQVXLumjunNqF3C3FB6PQY6/x0bjo/KZe7Cbi96YgihhPwmZT8IKo6VCeE3oSFUKtOhA6fx0GOv8ACKY5EomqYL3YTcXvCYOhagnjsmDv0c1UKoU1tOhau6oU0UThVUK7oNVFRDoQgnNqqFd0Gr+L3YTccleI9KftXYTcfjXYTcfjXYTcfjXYTcfjXYTcfjXYTXABbwt4W8LeFvC3hbwt4W8LeFvC3hbwt4W8LeFvC3hbwt4W8LeFvC3hbwt4W8LeFvC3hbwt4W8LeFvC3hbwt4W8LeFvC3hbwt4RcCP+Nv8A/8QAOxAAAQIDBAcGBAYCAgMAAAAAAQACAzAxEBEhcRIiNFFyk+EgMkBBYGEEEyMzQlBSgZGxYqEUwIKQkv/aAAgBAQAGPwL/ANFGyDmdFsg5nRbIOZ0WyDmdFsg5nRbIOZ0WyDmdFsg5nRbIOZ0WyDmdFsg5nRbIOZ0WyDmdFsg5nRbIOZ0WyDmdFsg5nRbIOZ0WyDmdFsg5nRbIOZ0WyDmdFsg5nRbIOZ0WyDmdFsg5nRbIOZ0WyDmdFsg5nRbIOZ0WyDmdFsg5nRbIOZ0WyDmdFsg5nRbIOZ0WyDmdFsg5nRbIOZ0WyDmdFsg5nRbIOZ0WyDmdFsg5nRbIOZ0WyDmdFsg5nRbIOZ0WyDmdFsg5nRbIOZ0WyDmdFsg5nRbIOZ0WyDmdFsg5nRbIOZ0WyDmdFsg5nRbIOZ0WyDmdFsg5nRbIOZ0WyDmdFsg5nRbIOZ0WyDmdFsg5nRbIOZ0WyDmdFsg5nRbIOZ0WyDmdFsg5nRbIOZ0WyDmdFsg5nRbIOZ0WyDmdFsg5nRbIOZ0WyDmdFsg5nRbIOZ0WyDmdFsg5nRbIOZ0WyDmdFsg5nRbIOZ0WyDmdFsg5nT/phpvCoqKioqKioqKioqKioqKioqKioqKioqKioqKioqKioqKioqKioqKioqKioqKioqKioqKioqKioqKioqKioqKioqKioqKioqKioqKioqKioqKioqKioqKioqKiFwR9NhH02EfTYR9NhH02EfTYR9NhH02EfTYR9NhH02EfTYR8XgsIZWs4Bazysbyu5/tdz/aoQtV5Wq4FYsKxn4BYMK13hYvcqXr7f+13FheFg8rVIK1mFY+LCPidRqviuv8AYLVYJeuwK+E672K124b5eq3DeV9U3rUYBL1mBfRd+xWu3xIR8PcwK+JrFYC6fir4eoVdEHbuYP3QL9Zywn3OF6vhYFXPF3hwj4bSi4N3K5guHg7ni8IvhYt3dkOj4Dcrmi4eDue29aUPWZ4YI+EuAvKD4uLt27w+lCFz1ccCtFgvKDn4v/rw5fBruVx8IEfBgNF5Wk7F58Te3B63v3+J04eD/wC0QajwYR8FgtN/fP5r8yGNbz9/BhHwXzX/ALfm/wA2GNU18EEfAgfh81cKfm5a6hRaaeXgQj4EfqNfzm8d5vgQj4DSPdbO13ALC9ywhlYwysb2rUcD4XXeFq3lYQysYZWOC1XAzj+l2PgAj4Ab3YmZe8q6HqtWJv7OBuVz9ZqvYfA65x3LV1Wq89nVNyui6zVewzNIVb4AIz2NmXDF+5aTzeZOk03FXOwfP0WYv/paTjeZOkwr/PzEstNCnN3TwjPc/dLv/EaIudUy9JtV/mKibcO+Ve7Eyw5hxWkK+csO/VPCM+/9Uq8onyFJoPkaq+WXHyRcZv8Aiayw7cZ4Rnwx7SiBV0/R82ywwVdPG8YSognhGcAhlKa3cJ5bvEu7yAnvZ+8p2U8IzmZoSonsZ8OXFznj3lHJGcEZ0POXFznweKXF4p8OUU7OcEZ0POXFznweKXF4p8OUU7OcEZ0PiQlRc58HilxOKeyUU7OcEZ0PiQlRc58HilxOKfDluznBGdD4pcXOfB4pcTinslvznBGdD4kJUXOfB4pcXinw5b85wRnQ+JCVFznweKXF4p8OW/OcEZ0PiQlRc58HilxeKeyW/OcEZ0PiQlRc58HilxOKeyW/OcEZ0Pilxc58HilxOKfDlvznBGdD4pcXOfB4pcTinslFPznBGdDzQlRc58HilxeKfDluznBGdD4kJUXOfB4pcXinw5b85wRnQ85cXOfB4pcTinw5bs5wRnQ+JCVFznweKXE4p8OUU7OcEZ0Pilxc58HilxOKeyW/OcEZ0PNCVFznweKXF4p8OUU7OcEZ0PiQlRc58HilxeKfDluznBGdD4pcXOfB4pcXinw5b85wRnQ+JCVFznweKXE4p7Jbs5wRnQ+KXFznweKXE4p8OW7OcEZ0PiQlRc58HilxOKeyW/OcEZ0Pilxc58HilxeKeyW/OcEZ0Pilxc58HilxM57JRTs5wRnA7kMpUQ+89jtxlFEz4Z95Tj7TwjPG9sl7v48C0+fnJO92HgL0148xJ0BV08Iz7/wmqBBwkaLe63wNzu4ZF5WHdFPA/Kd3TSQXOoi7y8p4R8BoP7n9K9hvHZvK+XBOG/wfy4x1d6vFOze43BaEPuf34MQ4x/ftaTzcFc3CGPABHwN8M/svqtuyXeuXfX0wStY4bvC6pw3L6jSF31378l9Nt+a13YbvC3A3t3Fa4LSu+u/fkvpN/cq95v8AAhH02EfTYR9NhH02Efzr6MNzslpRILg38gCP5y0bzcobGC7BYqI1nd8eEfzmFxBCyJ48I/nMLiCFkTx4R8BgrxD0W+677FfoaY9lc4EH3s1IRu3lYvYFe0B+Sue0tPv2rmNLj7K/Q0R7rvsV4ZpZFXRGlp9+1dCYXZLFob+677Cr/l3j2Vz2kH37NzQSfZXiFcN5WLmhaui5fUhO/bG2HxBCyIroTC7JYsDcysLivqwj2roTHOWLA3MrvsWDNLIr6jC3PwIRnthwxe4oOeA+LvPYOk25/wCoLT+Iue7y7GjFYD7q44sND2NJ+rC371dCYB79i6KwH3V4xhGh7Ai/EXthbt60YTA3sERGa36lou7vkbdBndFSgIbNbeeySG6ETyITmGrTcoXEELIhdhBFTvWjBYGi24i8I/EfDi4fib2BF+KwYaNWjCaGj27GjFYHBGL8PjD8xu8AEZ//ACHjWfTKzSiODR7q7Td/8rShPDhbe43BaJiH9gvovB9rHw3fsnMdUG6wM/CMXIMYLmhEnAIs+EA4ivulAfEAObvQfDN7SnQ3jAp8J34TZpP+0yquCL4huaEW/CtDW7yvulBnxVP1BAihTmHveRRaajCxmGu7E2fLhDSi/wBLvNGQWtoOGSDYwMNyL/msPsCnxD+I3qFxBC3Rb9Rw8gsYGGa+mdbzbY5poVEh7jZ8yJ9tlpZCHzHea7jbkGRB8t/92XFabPtvnhGcBvUNo8hY5oP0mYCxr2nDzCa4edn/AB2G5gr72B8I3OChxf1Cx93nrWfMI1ohsbAYbi+uXYfAccBiLIcQfiGNjB+I4mxvw7TqjE9gsdWHY4ij8bGXbrI2mKuvHahcQQsEGGbnP/q2G9u+1/uBZDb5nE2CHDOs/saDze9lkQfibiJ4RnQ+JDJFPztg5WR87WWDhsgj/EWfMdEI9l94/wAL7x/hfeP8L5jYhOF11jHf5Jjd5uTR7WPjOikF3svvH+F94/wvvH+E/ReXaVkF3tdY1t/1GYGy6My9fTc5n+19KIHZ4LWhEje22FxBCwjcLW5puVhyTG7ymj2syF3YLfItsePZObuM4IzofEhkiomdsHKyPnaywcNkHhFmhEiAOX3mr7wX3gvvBfeCbCgYgG+9QeMIWFj4oDgvuhfdC+6F90L7oTRC7jbBEhG4oCPqOWpFYf37BewaMX+0WO7wULiCFkS1uablYclC4ghZE7H/AI2OyUTOcEZ0PiQyRUTO2DlZGztZYOGyEfa6yHGAwOB7YO5Q3DzFhifhiYytU3LViv8A5Q+dc9qbEZR1ji0YOF6hcQQsiWtzTcrDkgdyhuHmLGRvIi7sRI54RZFefITwjOh8SGSKfnbBysj52ssHDY74d5ri2ww4gwKOqXs/ULfpwzmV9WLreyDSb2mhs/47u8ylmg6vkdyuewkfqFurDIG8rXinSRhv/lBralAmIA7cvqQzdvFoawEuKhsf3vOzDyCh8QQsiWtzTcrDlZ8gnWZ/Vjob0REbq/qFgDGnR/UmwmUFggNOLqzwjOhcSGSKfnbBysjZ2ssHDYHNNxCDXG6KPLfZitaE3+Fqwm/wsBYyG03ltbGxIdQgWm5/m2zEXrGE1asNo/ZYWamIaLr1Be+gcrxiFiL1rwWlfZC+lCa2wvecgnxHVcb1D4ghZEtbmm5WHKxsVlQg9hx8xZrAFX/KatUAWaTu95BOixKmeEZ14qmiK4MiDDFOEN4fE8gETa2D8Q/Rc2hPmifmBzvIBPiuq432/Ijm4X4FaRitT4v8W6TSQ7eEG/EN0xvWMTQ4lhGYtaOwLVJefZFsL6bf9rE32h8Nxa4K74pl/uF90NzWEZq1o7FqXvPstFv02bhaG36cPcV9QOYVhHYr/mtWMdiu+HYXH3WlGdfZeKpjYrwyIB5q8xQfYKJF/V2GsjO0IjcMfNEuityT4u+lunBcWlBvxLMd4X32q/5zF95pyRHwrMd5RfFcXOPgAj+V1/MAj6bCPpsI+mwj6bCPpsI+mwj6bCPpsI+mwj6bCPpsI+mwsFQKgVAqBUCoFQKgVAqBUCoFQKgVAqBUCoFQKgVAqBUCoFQKgVAqBUCoFQKgVAqBUCoFQKgVAqBUCoFQKgVAqBUCoFQKgVAqBUCoFQKgVAqBUCoFQKgVAqBUCoFQKgVAqBUCoFQKgVAqBUCoFQKgVAqBUCoFQKgVAqBUCoP+m1f/xAAtEAACAQEHBAICAwADAQAAAAAAARGhECEwMUFRYSBAcfFggZGxUMHwwNHhkP/aAAgBAQABPyH/AOFHtw9uHtw9uHtw9uHtw9uHtw9uHtw9uHtw9uHtw9uHtw9uHtw9uHtw9uHtw9uHtw9uHtw9uHtw9uHtw9uHtw9uHtw9uHtw9uHtw9uHtw9uHtw9uHtw9uHtw9uHtw9uHtw9uHtw9uHtw9uHtw9uHtw9uHtw9uHtw9uHtw9uHtw9uHtw9uHtw9uHtw9uHtw9uHtw9uHtw9uHtw9uHtw9uHtw9uHtw9uHtw9uHtw9u/4Yafk15wzhnDOGcM4ZwzhnDOGcM4ZwzhnDOGcM4ZwzhnDOGcM4ZwzhnDOGcM4ZwzhnDOGcM4ZwzhnDOGcM4ZwzhnDOGcM4ZwzhnDOGcM4ZwzhnDOGcM4ZwzhnDOGcM4ZwzhnDOGcM4ZwzhnDOGcM4ZwzhnDOGcM4ZwzhnDOGcM4Y/ILyq+N1RUfG6orvjdUVXxuqKr43VFV8bqiq+N1RVfG6oqvjdUVXxuqKr43VFV8bqiq7rUY0I2+CNcTdl+ccL5/wAGWAWtWPF+wqu+wN5HyKHHbMVZLdDuiNPk0xs9n4MhC3Zlh8GaJiavZuWL3g3ZR+xvJ9g3leGMpOnLlwI2uNd3VFV3MWc1u8hlKBEx41i8knpm24zQveLxyWm8gxvlsZYSH9+vARfLX2Vwh+yi8nCV6zVZj18AQRqW+nc1RVdujNvnQivG6EaUmyx0MImuRM3rZ0JUVs9OtLZj8CFX6hJXESXGK7IkE5JN/HoTbt29UVXaq9xBHcdqYrqq27NsV5BHu560Q071BBAmbhKWNThOticsjRdm5LITk+ZyhD7SqKrtFNrYQvQWem7ZoImpqLcaVtFzFphuggtGiCe0alQ8hSpRne8c5ENWQPsaoquzcEY8kQM/SsXb5EvJ7kmd5ns6F1oeKmaIdEFAwyGrH2NUVXZJjhJbyIgTSHYv4NDxpVJLoERBj7GqKrspoXdpdjsX8mjjAWg+xqiq7F7zJewoLhLlY7F/JIWhKIPNEcdjVFV2CUklfItZrUtP+UVl2usuexqiq7C4jV++lYEn41JGVJcSMryydTsZVl4in7Q07FW5SBzc8Jpv5ZI/ZEl9vyhcnPcjxGpzyLlrQdhVFV2CbniR9OyWbKIWY0lzbtitgYS5t0Q39kX0T1TzXYzi85JmxwTcSJUNsSItkzG4FLzWouLvjEk0TedhVFVjv3BiSRJZLDu4ty2D40w82LqS2kbCvEjTfHdnJoZWG5t2rqRoT/ZH1cmGLywQzmNj1RVY8z5JC84b3wFGczeSRePpYrEJzYV3Mk0xikidTuUth4Y2a4cCRGJtwlyc4ceq5L8eqKrH8lTgoQy4SUsmZpIKx9LtVjuPkGgRynesPKcSR712mK1UvTDSpWFC2YaY1UVWM8OVPqLjEQ7EyNrDn5eY8hb1VmmBCGcXY9UVWNzQ4Eh7Jgo8kn3j7UTYb3bFjxblYSDvKWPVFVjX17qUGCj68Y+fIlxhaD3OeP44jCqRpMpxqoqsammRYOvYPQMJ5FUx7vkwshwxIWt2NVFVjU0yKx9az7B6BhaFUx6jCoipY1UVWNRLQ+vXsHoOE8irY9XhURUsaqKrGphQWPr17B6DhPIqWPUGmDm+GVrGqiqxqYZFY+tZ9g9BwnkVbHqzTBzfBWMaqKrGohQWPr17D6DhPIqmPWYWb4KhjVRVY1MMlh9az7B6DhPIqmPUYWb4KxjVRVY1EtD61n2D0HCeRVMepws3wVjGqiqxqIUFj69V2D0HCeRVserNMHN8FYxqoqsamGRWPrWfYPQcJ5FSx6zCzfBWMaqKrGphkVj69eweg4TyKtj1OFRFYxqoqsaimSw+vVdh9BwnkVTHqjTBzfBWsaqKrGphksPrWfYPQcLQqmPVGmDm+CsY1UVWNTTIrH169g9BwnkVbHqDTBzfBWsaqKrGohQWPr17B6DhPIq2PUGmDRFSxqoqsamGRWPrWfYPQcJ5FSx6s0wc3wVjGqiqxqKUFj69eweg4TyKpj1hpg0RUsaqKrGphQWPr17B6DhPIqmPUYWb4KljVRVY1MMisfWs+weg4WhVMesws3wVjGqiqxqYUFj69V2D0HCeRVserNMHN8FSxqoqsamGRY+vXsHoOE8ipY9UaYOb4K1jVRVY1MtD61n2D0HCeRVsetws3wVjGqiqxqIZVj69ew+g4TyKpj1Zpg5ngrGNVFVjUwyLH16rsHoGE8ir49WaYNMx5Zu2NVFVjc/pEN7pY+vQ5pxy22SWNKNbYLSHsO3NzjpdZYRD7RhpZ41UVWOtV7DsfXeLfEeRebfYIm5hHlgoRmLp2EOGObmCuQ0foWNVFVjvU2wEFm2TH1O5S8i+r+59iua0fDGlKL11qdcpZskuD2BF+sZ7Z4DqYRDUcE4x6oquweK/d5hQUZqulk5iSWrES5DeO/srqxt2CJFNtVZBFjqsjVj9HrYi/sEK5yh64NE4mmk1l0uqatyeTyC37CqKrsbsla6GQCa24TSvuF2V+BK015uJ9Q7eQxdmdX73si63O6vNBLzYYSXzb3CaTfg6FjKxogAxdXGLxdlXkzICr1PsEkfDsaoqvjdUVXxuqKr43VFV8bqiq/mmcQObTI33I4yJ7+qKr+ZvNiALoIlnyPSRNcl0rKUthd9VFV/M/wCRuUtn6Yu+qiq/mf8AQ3KGz9MXfVRVdgjEkbbySJR9y6XZPiIjVxr27SHYwuviiA2Gw2Ii3QPS40SOrhyiSJzTMmwr5fbDogq2DiNqR1TmXAUyt5CeRGy59WQ87BJHSjbEJIjTDdSCWNthXe8DgmYy3/6BqHDudn+tuUNn6JIJ8BEmpewKrvjZlxW6vXVfMmyuKFIZi+2FbaFBrHinY1RVY84I5D8IvaJjwRZEiMVoZhcMbuaIUkJQlZAx7Ihei+5b9l75bv8A0IX/ABle/vod/HV6+y/A/wCHz0KtoNRU0LhZ2wJYSyTMcUtv99q9cXm2hEBpzPoaTTTyFKYNGZl4Y/0NyhsnLi/0BM4Az/NrCkzNMvszcftW6jVlXrWYtozZ0OvIiIpvP1ewVRVY/wDWrbDmodWGic1s0HgaDytf1EXtsb2DWr2iePfo/wAWKBltS2zF2w8yIGM0844EGEYSQ5NIUtjDpJx/1Dezi4Nmc1zQq6jKYrY0wJwvg8oZcFqcnsJaEkrhAlSW2ZKAZ7Yr39A+hUrkjLyOTTRKYkZXJ2mIHh7Y8l15Jn5sfldacg9nxAjfsrwxYDV3oy1W6U2NTIb4H+huUNjaRt3DNPmsn8i1kWq4XMzViA5TDLionjxYty5ZluxEkJQNpKXkNDpuZXJEV9+waWdcpdwTkU5Ep5ouj1lw8eqKrGanzaBAcJNw7lI6YmQLXmxzK/5kJyks2SY3mLzWO+uTKFqFF41YhUiKb7sQyJMfhDMw+OikMf8Ao2IU74m8WRLhM+9l0mbnci16UsieBiUKEREx1sI/oYxXKZj1VquHpwI/0tyhs1aCewnXWxlzVxPkeUdktWTFLERV1NvNkF+7bWaQ2djQjVzHTLGXqrEJFKMdqiqxqUUooCp2LNeSm9eVfLA4Lno/6rMldhIugQlTesriybVJUcXI4WRDHaJmNFulMU4EmhqLMr66jIZK6Qv92QabXqrHBLjCGULO8QkOHmQf6G5Q2Pc5RW0/9lCsopJSmFHHyKx0DyX0Ha0bORH/AEeDDGqiqxqMUopCu2LNFF64NOGhHyPLv9RYxpLR9KbupqWM7U4yjQx6fsHnxDHqJhrpMzN+bi4JlY83qxj6adNGIpe/EpixOU0iJGpTusSVDFq0qU1+wiWGw0f6W5Q2fp20/wDZQrKYPDXp+4orIptb+hdG+x48wZMLJvjVRVY1OKUUhXbFmim9f2jWLR6UbrLgJTc9KsjHNpHvyk2Rq3HJNiSemcxxLG4Hc/ekLhtXdDRlnUoZHwQ+x/pblDZ+vbS/2UKymD0ubSPNlJ/Vinf3vQ8gaSXksyUWjcm3njVRVY1OKUUhX7NUU3r206yJ5P8A8BElzIezOKpQNk2mncK/JCGob0IRejpaJkZsLlkLa2PyVYx3a374aUToXMlsJyEm2L30PRdvIpXF49GSaoWQ2+ElqN7JTd/sYrn5kQ5ILsqiSRp5JTax7TSlo/1tyhs/Vto/7KFZTLGjZc62EBZ5PZjebTJFzsSBTvbJGV63vd2Iv+/xx6oqsakFKKQrdizRTes7vdFk15ymLzXZ/wBFiCETXJmhGSUZKLxYpcjl0GxgUPF8E+ZWKYUnKHMu/Vn8SJCQuBtJNvIvPVxWpC5GbnQSXpl6aFsKTZn6SIHfIFtLHcuN7L3ZHkZnYgf4m40x7WfqW0P9jzDsso1jSYbluLRfmqxfCTZqRan+CHINkrGBqb/eOYluPVFVjMU2EvQp6UlqGgiovEPkmjN2pIl2yARyE3Rq0xa/5mPy8DEyulJO9jGChO5OLVxNZMhiWG9OYuV42uGb77NGDkRPwqLU03VMObYz1duoCBMQrp8/4Ey+pdMxv2Irh9kotu0Dg6XNt7+x36zYsuB/qRUXiNwlX0JNk/I4OVsmN26d1De6+i0Vj3VwjlMhbKabMcn6LsxjGt0rlxazQ1oLXocAcFOLkd7HpuVxOLVRU7ajLEho1CXszaDyJL3Nswk6P8M3iYPLsKoqsfIz16c87IIIvvPLdkEEWs3Y782QR1akt35J3bfXfpcOdG/yZ52O2dhS830wNOfShl8Zsalj7GqKrtVhsXQ8YsBD7+qKrupJJJJ/naoqvjdUVXxuqKr43VFV8bqiq+N1RVfG6oqvjdUVXxuqKr43VFV8bqhiSL43mZmZmZmZmZmZmZmZmZmZmZmZmZmZmZmZmZmZmZmZmZmZmZmZmZmZmZmZmZmYhJpf8Np//9oADAMBAAIAAwAAABDzzzzzzzzzzzzzzzzzzzzzzzzzzzzzzzzzzzzzzzzzzzzzzzzzzzzzzzzzzzzzzzzzzzzzzzzzzzzzzzzzzzzzzzzzzzzzzzzzzzzzzzzzzzzzzzzzzzzzzzzzzzzzzzzzzzzzzzzzzzzzzzzzzzzzzzzzzzzzzzzzzzzzzzzzzzzzzzzzzzzzzzzzzzzzzzzzzzzzzzzzzzzzzzzzzzzzzzzzzzzzzzzzzzzzzzzzzzzzzzzzzzzzzzzzzzzzzzzzzzzzzzzzzzzzzzzzzzzzzzzzzzzzzzzzzzzzzzzzzzzzzzzzzzzzzzzzzzzzzzzzzzzzzzzzzzzzzzzzzzzzzzzzzzzzzzzzzzzzzzzzzzzzzzzzzzzzzzzzzzzzzzzzzzzzzzzzzzzzzzzzzzzzzzzzzzzzzzzzzzzzzzzzzzzzzzzzzzzzzzzzzzzzzzzzzzzzzzzzzzzzzzzzzzzzzzzzzzzzzzzzzzzzzzzzzzzzzzzzzzzzzzzzzzzzzzzzzzzzzzzzzzzzzzzzzzzzzzzzzzzzzzzzzzzzzzzzzzzzzzzzzzzzzzzzzzzzzzzzzzzzzzzzzzzzzzzzzzzzzzzzzzzzzzzzzzzzzzzzzzzzzzzzzzzzzzzzzzzzzzzzzzzzzzzzzzzzzzzzzzzzzzzzzzzzzzzzzzzzzzzzzzzzzzzzzzzzzzzzzzzzzzzzzzzzzzzzzzzzzzzzzzzzzzzzzzzzzzzzzzzzzzzzzzzzzzzzzzzzzzzzzzzzzzzzzzzzzzzzzzzzzzzzzzzzzzzzzzzzzzzzzzzzzzzzzzzzzzzzzzzzzzzzzzzzzzzzzzzzzzzzzzzzzzzzzzzzzzzzzzzzzzzzzzzzzzzzzzzzzzzzzzzzzzzzzzzzzzzzzzzzzzzzzzzzzzzzzzzzzzzzzzzzzzzzzzzzzzzzzzzzzzzzzzzzzzzzzzzzzzzzzzzzzzzzzzzzzzzzzzzzzzzzzzzzzzzzzzzzzzzzzzzzzzzzzzzzzzzzzzzzzzzzzzzzzzzzzzzzzzzzzzzzzzzzzzzzzzzzzzzzzzzzzzzzzzzzzzzzzzzzzzzzzzzzzzzzzzzzzzzzzzzzzzzzzzzzzzzzzzzzzzzzzzzzzzzzzzzzzzzzzzzzzzzzzzzzzzzzzzzzzzzzzzzzzzzzzzzzzzzzzzzzzzzzzzzzzzzzzzzzzzzzzzzzzzzzzzzzzzzzzzzzzzzzzzzzzzzzzzzzzzzzzzzzzzzzzzzzzzzzzzzzzzzzzzzzzzzzzzzzzzzzzzzzzzzzzzzzzzzzzzzzzzzzzzzzzzzzzzzzzzzzzzzzzzzzzzzzzzzzzzzzzzzzzzzzzzzzzzzzzzzzzzzzzzzzzzzzzzwnX7777777777777777777777777777777777777777777y3//AP8A/wD/AP8A/wD/AP8A/wD/AP8A/wD/AP8A/wD/AP8A/wD/AP8A/wD/AP8A/wD/AP8A/wD/AP8A/wD/AP8A/vv/AP8A/wD/AP8A/wD/AP8A/wD/AP8A/wD/AP8A/wD/AP8A/wD/AP8A/wD/AP8A/wD/AP8A/wD/AP8A/wD/AP8A/wDvv/8A/wD/AP8A/wD/AP8A/wD/AP8A/wD/AP8A/wD/AP8A/wD/AP8A/wD/AP8A/wD/AP8A/wD/AP8A/wD/AP8A/wD++/8A/wD/AP8A/wD/AP8A/wD/AP8A/wD/AP8A/wD/AP8A/wD/AP8A/wD/AP8A/wD/AP8A/wD/AP8A/wD/AP8A/wD/AO+//wD/AP8A/wD/AP8A/wD/AP8A/wD/AP8A/wD/AP8A/wD/AP8A/wD/AP8A/wD/AP8A/wD/AP8A/wD/AP8A/wD/AP77/wD/AP8A/wD/AP8A/wD/AP8AnGwhDfP/AP8A/wD/AP089Ux95/8A/wD/AP8A/wD/AP8A/wD/AO+//wD/AP8A/wD/AP8A/pv+qCFRqDY19/5awDxlRXtzR/8A/wD/AP8A/wD/AP8A/vv/AP8A/wD/AP8A/wAey8MCQggggh6/aAsPeRiBCbfCye//AP8A/wD/AP8A/wDvv/8A/wD/AP8A/wDuY9DCCCCCCCCB+8JtKCBhQpCABgf9/wD/AP8A/wD/AP77/wD/AP8A/wD/AKnAfQggggggggggggAggggggggggtfP/wD/AP8A/wD/AO+//wD/AP8A/wD6XRXQgkxzAsggggggghuiziawAggkR/8A/wD/AP8A/wD++/8A/wD/AP8A7LaUkQkVgenqziAggggmA6sweBAgggEzP/8A/wD/AP8A77//AP8A/wD/ABoSCCNap/Tf2ftKCCCXy/8A/wD/APNeBCC3k/8A/wD/AP8A/vv/AP8A/wD/AN9WMILXNd+06zyuIIIJxT//AP8A/wA++kIIID//AP8A/wD/AO+//wD/AP8A/FogCC2H1/8A/wD/APfCCCCN+/8A/wD/AP8ASCgggqf/AP8A/wD/AP77/wD/AP8A/wDf8CCCh/P/AP8A/wD/APwgggvP/wD/AP8A/wDloEIIBz//AP8A/wD/AO+//wD/AP8A/X8CCC5T/wD/AP8A/wD/AMIIIJz/AP8A/wD/AP8Ad4gggkf/AP8A/wD/AP77/wD/AP8A/wDX8CCCJ/1//wD/AP8A/CCCCp//AP8A/wD/APdggggtf/8A/wD/AP8A77//AP8A/wD9fwIILEF3/wD/AP8A/wDCCCC1/wD/AP8A/wD/AHcIIIB//wD/AP8A/wD++/8A/wD/AP8A1/AggpWdf/8A/wD/APwgggnf9/8A/wD/APbwgggj/wD/AP8A/wD/AO+//wD/AP8A/X8CCCJNP/8A/wD/AP8AwgggoPzf/wD/AP8Afwgggo//AP8A/wD/AP77/wD/AP8A/wDX8CCCS/8A/wD/AP8A/wD8IIILX9H/AP8A/wD2sAIIL3//AP8A/wD/AO+//wD/AP8A/X8CCCl//wD/AP8A/wD/AMIIIJ3/AF//AP8A/wBfCCCCd/8A/wD/AP8A/vv/AP8A/wD/ANfwIIJn/wD/AP8A/wD/APwgggoP3f8A/wD/APVggggtf/8A/wD/AP8A77//AP8A/wD9fwIIJT//AP8A/wD/AP8Awgggtf1f/wD/AP8AfwgggFP/AP8A/wD/AP77/wD/AP8A/wDX8CCCh/8A/wD/AP8A/wD8IIILznX/AP8A/wD38IIII3//AP8A/wD/AO+//wD/AP8A/M8CCCy1/wD/AP8A/wD1ggggtwXf/wD/AP8AfAgggrf/AP8A/wD/AP77/wD/AP8A/wDs0CCRk/8A/wD/AP8A/wDYwIIk3/8A/wD/AP8A/RLBBCL/AP8A/wD/AP8A77//AP8A/wD/AO7fm7g3/wD/AP8A/wDzBdwBva//AP8A/wD/APzh2tJ//wD/AP8A/wD++/8A/wD/AP8A/wD3/wD/AP8A/wD/AP8A/wD/AP7/AH//APd//wD/AP8A/vd//wD3v/8A/wD/AP8A77//AP8A/wD/AP8A/wD/AP8A/wD/AP8A/wD/AP8A/wD/AP8A/wD/AP8A/wD/AP8A/wD/AP8A/wD/AP8A/wD/AP8A/vv/AP8A/wD/AP8A/wD/AP8A/wD/AP8A/wD/AP8A/wD/AP8A/wD/AP8A8bI//wD/AP8A/wD/AP8A/wD/AP8A/wDvv/8A/wD/AP8A/wD/AP8A/wD/AP8A/wD/AP8A/wD/AP8A/wD/AP8A+96P/wD/AP8A/wD/AP8A/wD/AP8A/wD++/8A/wD/AP8A+nyAXvd9C9Vde7EaPoOAX1fB0AuZK4RdP/8A/wD/AP8A77//AP8A/wD+h+Jw+cCzgOacwKz/ABlR0i2/ez1Innbf0/8A/wD/AP8A/vv/AP8A/wD/ANta9bQtDZ6FI3ZX54SNZMZb3Jb+P1esyr//AP8A/wD/AO+//wD/AP8A/HeqWXWqc0kzMCvz0fMjwO3/AI3trmZpEA//AP8A/wD/AP77/wD/AP8A/wDQ1q0kNk7IsDv2Ed2xwOjGpaZ/ykH/ALbtP/8A/wD/AP8A77//AP8A/wD/AMTL7uJ4M7wUs889sW6Myb6OW+cZvf8A39//AP8A/wD/AP77/wD/AP8A/wD/AP8A/wD/ALzff/8A/wD/AP8A/wD/AP8A/wD/AP8A/wD/AP7X/wD/AP8A/wD/AP8A/wD/AO+//wD/AP8A/wD/AP8A/wD/AP8A/wD/AP8A/wD/AP8A/wD/AP8A/wD/AP8A/wD/AP8A/wD/AP8A/wD/AP8A/wD/AP77/wD/AP8A/wD/AP8A/wD/AP8A/wD/AP8A/wD/AP8A/wD/AP8A/wD/AP8A/wD/AP8A/wD/AP8A/wD/AP8A/wD/AP8A77//AP8A/wD/AP8A/wD/AP8A/wD/AP8A/wD/AP8A/wD/AP8A/wD/AP8A/wD/AP8A/wD/AP8A/wD/AP8A/wD/AP8A/vv/AP8A/wD/AP8A/wD/AP8A/wD/AP8A/wD/AP8A/wD/AP8A/wD/AP8A/wD/AP8A/wD/AP8A/wD/AP8A/wD/AP8A/wDvsMMMMMMMsMMMMMMMMMMsMMMMMMMMMMMsMMMMMMMMMMsMNjPPPPPPPPPPPPPPPPPPPPPPPPPPPPPPPPPPPPPPPPPPPPLPPPPPPPPPPPPPPPPPPPPPPPPPPPPPPPPPPPPPPPPPPPPPPPPPPPPPPPPPPPPPPPPPPPPPPPPPPPPPPPPPPPPPPPPPPPPPPPPPPPPPPPPPPPPPPPPPPPPPPPPPPPPPPPPPPPPPPPPPPPPPPPPPPPPPPPPPPPPPPPPPPPPPPPPPPPPPPPPPPPPPPPPPPPPPPPPPPPPPPPPPPPPPPPPPPPPPPPPPPPPPPPPPPPPPPPPPPPPPPPPPPPPPPPPPPPPPPPPPPPPPPPPPPPPPPPPPPPPPPPPPPPPPPPPPPPPPPPPPPPPPPPPPPPPPPPPPPPPPPPPPPPPPPPPPPPPPPPPPPPPPPPPPPPPPPPPPPPPPPPPPPPPPPPPPPPPPPPPPPPPPPPPPPPPPPPPPPPPPPPPPPPPPPPPPPPPPPPPPPPPPPPPPPPPPPPPPPPPPPPPPPPPPPPPPPPPPPPPPPPPPPPPPPPPPPPPPPPPPPPPPPPPPPPPPPPPPPPPPPPPPPPPPPPPPPPPPPPPPPPPPPPPPPPPPPPPPPPPPPPPPPPPPPPPPPPPPPPPPPPPPPPPPPPPPPPPPPPPPPPPPPPPPPPPPPPPPPPPPPPPPPPPPPPPPPPPPPPPPPPPPPPPPPPPPPPPPPPPPPPPPPPPPPPPPPPPPPPPPPPPPPPPPPPPPPPPPPPPPPPPPPPPPPPPPPPPPPPPPPPPPPPPPPPPPPPPPPPPPPPPPPPPPPPPPPPPPPPPPPPPPPPPPPPPPPPPPPPPPPPPPPPPPPPPPPPPPPPPPPPPPPPPPPPPPPPPPPPPPPPPPPPPPPPPPPPPPPPPPPPPPPPPPPPPPPPPPPPPPPPPPPPPPPPPPPPPPPPPPPPPPPPPPPPPPPPPPPPPPPPPPPPPPPPPPPPPPPPPPPPPPPPPPPPPPPPPPPPPPPPPPPPPPPPPPPPPPPPPPPPPPPPPPPPPPPPPPPPPPPPPPPPPPPPPPPPPPPPPPPPPPPPPPPPPPPPPPPPPPPPPPPPPPPPPPPPPPPPPPPPPPPPPPPPPPPPPPPPPPPPPPPPPPPPPPPPPPPPPPPPPPPPPPPPPPPPPPPPPPPPPPPPPPPPPPPPPPPPPPPPPPPPPPPPPPPPPPPPPPPPPPPPPPPPPPPPPPPPPPPPPPPPPPPPPPPPPPPPPPPPPPPPPPPPPPPPPPPPPPPPPPPPPPPPPPPPPPPPPP/8QAJREAAgIBBQEAAgMBAQAAAAAAAAERMSEQIDBhcUFAUVBwoKFg/9oACAEDAQE/EP8ALIktrIv1jqHUOodQ6h1DqHUOodQ6h1DqHUOodQ6h1DqHUOodQ6h1DqHUOodQ6h1DqHUOodQ6h1DqHUOodQ6h1DqDa0hJX+8wAAAAFLcITfgmabFNLR7vSmiiWtuORr+GU4f5ICTbgNmWKRCTRkEJ2XSGrJljqbitMzwhIggggSZQ1By0NfjAOMCDGkC3qMj2gfAJXBBAlsggjTGGSfwwHtHwQsI+k8LEJDEJCJJ1Yhk6wKWGPaPgvwQEwBSQhH38lEQkpfggfeQULVsarZ3iSUyeGRoGv6JlPc0Y4fgAJAIkLVaLWWNYoS/pIm/g9oECVvQsseTb1exQWsrakshqOcCQrY3BgELV2Sh7x8J2yNg+bpMOixatED84CZaLVzY0jWJIEEDtfOhORKN1iLYkNPnA+trYcxJb22/jnAoxbEw4LNqYcCFbKLnAoxXso4LNrb73NFzgUYr2NhwWbaOVoucCjFexMOCzam8xtui5wKMV7KOCza289zRc4FGK9jYcFm2je9zRc4FGK9lHBZtTlFFzgUYr2JhwWbW3nuaLnAoxXsbDgs20crRc4FGK9lHBZtTee4oucCjFexMOCza1N7G22wucBsMV7HwuBqbab3W5+PwAJTnVuB2CuDHMUtW4KjgxzEySRohkPOA1+iNAT1Y1/eID/Y3FicrGi2NwRKeBkQS0xp+keES/gQI5Y/8AJAANwpEKYIia+/xgFSzP+T8cBtJZHpwUnkWVGR54FMFSSiTGLLG8WKElFDCMnp0FFrAWssccaebCjSLMSKTL05eismHjAliGh4E+cByE+mA+C4kNQ4IUmfKodLcrB5lENaI2dorhsKFUNCCEvRkEiIiT4NjlaLMhAmwpjktjH/oR+oKoSGMYsLXOBdFw0IuEjWHAQy0qKGJK4GpDqR6CKHIiraKQazB9ImQo6LMULizK/CzMEImD6H3zgXRdsblFxToUjpV8INhJQY0JDuTJEJ8MyxhShqSHsMWqCLgcWUKk0EmrZZn/ACDplgkquhjWJyZEktkyGMb7zgNg0Pk2rEJ9QYKh8SMoHKxicj9Bn6jHJQIZmCqiZ+uxgeVEmIY3icjmaCUIJZQRCYspoWZQMSJllWPMoWJDHE1EShLnAgcoWSiJIEkS9Y0Y22ZEhDIMCGhL6TOBKCENRlCGpsWKEs/xQDyJR/YgAAAAQLD3Pc9z3Pc9z3Pc9z3Pc9z3Pc9z3Pc9z3Pc9z3Pc9z3Pc9z3Pc9z3Pc9z3Pc9z3Pc9z3Pc9z3PcYLP8bf8A/8QAJhEAAgICAgIDAQEBAAMAAAAAAAERMSAhMGFBoRBQUXFAoIGxwf/aAAgBAgEBPxD/AJZHlbQ4aOo6jqOo6jqOo6jqOo6jqOo6jqOo6jqOo6jqOo6jqOo6jqOo6jqOo6jqOo6jqOo6jqOo6jqOoQm0ai+tuK/rbiv624r+tuK/rbivlaEtlfFgbOll4aHcIE0S05tCWgrwuTZ0suTRqVG4T5bivjY3QiaXL/R3LRtty8Fpyh/LxslQ/wBEp0oiPhgfCJBU9juWjc3gm9kOpeQKYf6Ij5XHcV8KRPzfhDq3hfnEmt9fhMH/AIJFt+B/Zr84lFtP4Jkb/OJcV8Ms2ofny3yK7YY2NlvkXGxArXK0O+C4r4HhukNNPj/WurXkWG6fBcV8EJUryhstVnnN4oaavhW6Ny1/Dt1EReTdt/nBcV5qaeENYeXinLlsTlhQIJaEcJIsawZEw815MsWpAI4SPhFCSJGYwIhrFiHwxdSazuK82PVnrFjQF+7Za18PZBsaGlrsRtDxeixiq42vJ5X/APQaacPF8q1rO4rzjV8zilhS2QjRMfCcEske7EpKnvFHhFsS1k9qDtfePS7zuK+RIpuhvRGSEzrFduaF1b/MWp/M7ivkPrfDeXr8hVnrY3zXFfIfWHEZ+vyFWVfzG+a4r5D63w1GXr8hVnqY3zXFfIfWIhEt5evyFWepjfNcV8h9YtEZevyFWVfzG+a4r5D6wnA3OXr5mcVZ62N81xXyH0uD18y8VZV/Mb5rivkPrcHr5lqMVZV/Mb5rivkPrcHr5mcVZ62N81xXyH1uD18y8VZV/Mb5rivkPrcHr5GBqMVZ6WN81xXm7EMf5h3mzFMfgjZOKFcniMWR/HO4rzc7wUN8x8pNuERl4BkqgjaH8sbyD0eT2+CFYNRp/LlI2xiHt7edxXwSmsN2m7GyTBKNz/BKNLguxo1fjwMoYRxML20JSNRnCahk9of4M4YJiTf+Ryt3/pwXFfBI0nYklXI0nYklXzPBI1NiUVw3Ff1txX/sQ2ROVPPcV/7HQ7K+e4r4N0BeQjA38DfIt0QJ0Qyb5EifCdESH6i3Q2kln4fFLY6HZoJfFI4ZEiNhv4EoQ3D4LivN4ROIw/iNLHl9wPTQjYSKxaUo3QNTRMEhCUo3QNrQl9nUOYoOxbUhhaKY9iRiElkAkQNajO4rz8C7EiwsINPwm0hmq+BuUDEh4IZqvibdQxykUBARkzhlB2VCHYnqMSNBiQPPO4rz8S4xYo+cRuQ0PYmUShOcJjmpGSexNP4CY4Q1GnsYHp6E9R2VEQOxLUSGJiGIRMkiU53FebmlA5S38MmBYUMm0GKRpqGbdEBIOaWPahkb0QgmD2lnhEBuMmWUgbzBqoG5GpmiSErPkaiGG+RKIZ3FfBJAkPVEhJEIgS2QiPiBa+C+EKCFJCExufmRX8QiENcFxXyyT/vuK/rbiv624r+tuK/rbiEP62qqqqqqqqqqqqqqowv+Nv8A/8QALBABAAIABQIGAgMAAwEAAAAAAQARITFBYfAwURBxgZGhsSBAYMHRUOHxwP/aAAgBAQABPxD/AOWQ0aNGjRo0aNGjRo0aNGjRo0aNGjRo0aNGjRo0aNGjRo0aNGjRo0aNGjRo0aNGjRo0aNGjRo0aNGjRo0aNGjRo0aNGjRo0aNGjRo0aNGjRo0aAQMoX5TnMwf8AaNn+04zOMzjM4zOMzjM4zOMzjM4zOMzjM4zOMzjM4zOMzjM4zOMzjM4zOMzjM4zOMzjM4zOMzjM4zOMzjM4zOMzjM4zOMzjM4zOMzjM4zOMzjM4zOMzjM4zOMzjM4zOMzjM4zOMzjM4zOMzjM4zOMzjM4zOMzjM4zOMzjM4zOMzjM4zOMzjM4zOMzjM4zOMzjM4zOMzjM4zOMzjMBE2mHlHm81FwlMMsf4xwdouftNT+NcHacnaGX8a4O05O38b4O05e38b4O05e38b4O05e38b4O05e38b4O05e38b4O05e38b4O05e38b4O05e38b4O05e37VgDWEsmqFwW46yCYCB0GMOFvUBU9KpWp3Tw7xYQG4s+5T0O5BDbdgVFjSFlx4tO8RvZoUwxtmdVcImCLoLhQuO0ECEnUtZCj0ESp92IQFCHf8A7IYWeVwlv9rRJdsCpSImRaMvhRqL+pWkeyVB/a4O05e37HpcK2xidD1g30LB6woN5KPcxHYlGOL4EK8FwdYqMS4Y3ra90LzlGEfXSIO2MResSeX5ukzA2rlUJXFw+4gxed5I23h0YNA+XgcWVMpcx8LlwRMQ9orLGYK90uHJyW/mIwRrDi8maaen7HB2nL2/Wq53c7oesqR8dDZDkFV4uf4mvjp4nnHL1hQuZmohzMXBbwMV6y8WGP4HzEYtaKHrMJf0cjtDAKyBUL1iYQL8LfG5fieCo8RSkFxG6sb55Qm3OsHyYfH63B2nL2/VvSVsCMrT9p2IJGKoYvn+L1QigsVWjygaOQDB/sjUItR0lpbuQkpGgDGLG5w/JMmagfk5/nUvwrwuIAxVpieTKSZgHGpTtXnMn6nB2nL2/TYhYNGcxTgKDD/tAAwKNpcWpcuXF6o1FuZ1cpnPkOB/3jexoSmKZWgRwxLLy8m8pgDCZJdktlsuW+IXErxC4tPhbFdJfeDh4AgCtGFiM0QNaiwkUjKDylIK/R4O05e36ZYAAGMJFBiuIexL7eB7fqGXg1qyYYbGFRD257DwcvFVflk/AOET8TOWSyCBjBq4hwD/ALRi9wMxgjM/6PB2nL2/SJJUANYKAG8TAuhv+A5+CX+kZflR4uf45PyIV0KtlR4WNDX1lkCkaTt+l4O05e36ILlCr7oXzMijKZPE5/q3Lly5cuX1L6V2EdUEwWD7+Uth+jwdpy9v0PWEEmyq7QRAQDseGR8Tn/yOSHdcRB5cS6Doh+hwdpy9v0HFWVUQg1A2/bxyeBlHP8q/MIlfohcTxqVKlPaVHo5PAMTi7DUjg1qQ6/B2nL2/QI7ijs9BCtI5y/DV4Of4mEpesPV47C+0QFLZ/aXvohLqwbJKYT7n+kJWbIoPtNDUMf0jvC1RMwbfYjQp/JfvGoAGdMFVx3BhBF20R+pp0gAv2iRpJnKZXQsgn3DvL2xiPbb9Dg7Tl7dfDsrMtwDJjjkTIlXj4jUMo5/gEw6V7ryCJrX+obuk856h95aVKhRu5rPUSkjeF9HJ66wtgzJCdmVKj1aSUm7igu53BMa84jSM1buUYkVnfiQ72umYIjh2P9gsNztibJBmnR0qEQr9us1j1uDtOXt1wOYCvpjDLoKDaXjFxjl4mUc/ELlrz3E9zG+jeLlHELXUQ0maWS8ZZ3l4WRW+1xhe2Kz2jLDYrt1IMc+oGMzeK6+qZsIBcu8/BFRSs/wM4+U3EHAdmBGD4mu5Bww8K/Iz8DltRbMVoq0DbTr8HacvbrMraNj7f+PBwPAaI5/leUq3D3if3WTFYpk8TwyRNZ4eJrJSGkPABDsPeOb0xSPgGq+TEKhas1emni+s12gH5ouJA+Dl+Q1FsqayhRlZhHrcHacvbrCaykyrf1/rwcfzzR3LZOxHSzykf9xXn+I8MkupZHZHAl/1bfDBOhiGp4OHQIjIMTsRZFlDoEtvqHldZb6ME0sSzwcvzM5XrNrtUGxXW4O05e3WVFw8koL64xzg0x/IiimDutayj1lyyLHxIypTHV3EJLy2l4bxTqmk0i9DAxmDhaUcg/8AY4t9W41sBVfbLwegTIEq7YkscijrcHacvbraz1U73ME6ofBKiVDL8jdxQMi8kGWMeql/j15mX3HLouRLc4Cp3iwz6mcZxU+Ph/cY5dAczvqj1uDtOXt1hq1D5iaHQHi/lmrvFK9jCPValgeJzjr0XC20VI41HYuVK6qmNeXN26NcfLE9mAAwWV1uDtOXt1uP7z4fgtfmZPOL3f8AX6E3Xo5vlOA79e9BlMCpXQouMEviFlAA9+twdpy9utw/efDOiyJ8n/X6A3Xoufy6/Hwkyjl0PlPqcd363B2nL263K958Q6Iyec+T+j9ALr0c3y69DPwMyjl+ZnPnPqcd363B2nL263C958B0QYIvd/1DrhdejmznO/XeJN4JeHQXE0nPd+twdpy9utwPefDOiyJ8n/Xg9YLr0Rj8pynfrOXh+jo/PfU5rv1uDtOXt1uV7z4DotHnPm/o/QC69HN8v0MKHQ6BnPnvqcV363B2nL263C958I6LIi93/XjXVC69HN8v0ca5HRfuvqc1363B2nL263K958A6JUIPd/1Dwvqhdejm+U5Dv+heh0T776nNd+twdpy9utyvefAdF9k+T+iEesF16Ob5TlO/WfD9HQM5899Tmu/W4O05e3W4HvPhnRZE+T/qHXC69HNnOd/0B0Oi6819Tmu/W4O05e3W4XvPhnRDQ84Pd/14PWC69HN8p7XrDl4XodAzh959Tmu/W4O05e3W5PvPjHRHyR+7+j8HqBdejm+XXw+G6OgZz5b6nPd+twdpy9utwPefCOiyJ8v/AF+gF16Ln8uvh8N0dHD5r6nNd+twdpy9utw/efDOiGhB7v8Ar9ALr0c3ynKd/F6s6OgQ5/d9Tnu/W4O05e3W5HvPgOiMnnF7v6P0AuvRzZynfxOrOjo/OfU47v1uDtOXt1uF7z4Z0WRPl/6/QC69HN8pznfrPh+jo/PfU5rv1uDtOXt1uX7z4DojJ5z5P6P0AuvRzfKch38Xqjo6BnPnPqcd363B2nL263C958B0Rk84vd/1+gF16Ob5fhg6uuR0flvqcd363B2nL263C958M6LIny/9foBdei5/Kcx3/QFyOj899Tmu/W4O05e3W4HvPgOiPkg939H6AXXo5vlOU7/oPo6BnPnvqcd363B2nL263C958E6ILEXu/wCv0AuvRzf0OGXR0X776nPd+twdpy9utwvefAOiyJ8n/X6AXXojH5fo0PQ6PzX1Oa79bg7Tl7dble8+D0Rk85839H6AXXo5vl4wCPTfD9HR+S+pzXfrcHacvbrcL3nx+iPkivz/ANH6E3WHQzfLx8y+m+H6OjmezfE3OR79bg7Tl7dbbN9kB7mPjomxIZFwyW7249ZgaUvaoGWEPRFcANv0lpsHp1mMjVIu0cfXHoueBiHylma49bg7Tl7dZyip3r1r26CoFYLyvNZRKjit9fWYIT5IafUD82FbMO8l1+I+d9dDlERKlpqh2PaP5uEzyixeJmuCiutwdpy9usxtHLr07wKC2Gv5kIgAvGU+nsMu5FvrmTLjzFfZAc7CxNSNfiZxMAypkEQybKbw8/0BjLW2LRwTOaCNneUSiUSiUSiCgvlY52FbWUPW4O05e36GmrCxf+kEL1ieFRJSwobWpQTFeyF8CJVra5yuveEy94ocBp8fK7QMdLEsleJWMIq1qURZRF7Kv8lBMG+vmiRRExE0gSiN084rIrERuXAuVGHiq1UtbLsK7sW25fW4O05e36A4wGi20x8wm+qKx9NJhwttS/OwxSgm8HCueXktervNGEzeDn13KCofxRi9r0hBkVkmNYl9MscA2XGhlYyHpHCdAYH0i4AAeXgTJHq5vAVvU7Q6iN72dIN5SKMPt7tghd1OwuBw7s69I87ctgekcsP0ODtOXt/xx+D4afpb/kmMMutwdpy9v43wdpy9v43wdpy9v43wdpy9v+aajRmJ5pTHdn5o2WsIP73B2nL2/wCZtJYoMy2pexkBnTFY6dlILGE8IS9xb8zN+9wdpy9v+ZxE5f1J8THKfC+hM373B2nL2/5nPa/1J8H4fG+hM373B2nL267HatQLV8oMQMnPg4wcKbV1TMwsYL9s4QBaz2GUqBiukEOsArXfGrikXmxU9piScw7HksbNTiLeV5wbPw0mPWqVo9oQXHB2nldkRcNLwPtM8jSDDyuIQJqynyv8iqO1ioO7kQ+qFlT9MPbjsCXEXmqs15XcCptQvZg/g/ZZIT6EB01g/g4zdAy36i5TNMR7y6C9Cn2iOKGYmJHOcp2T4fw+J9CXoHRGvN0mTRBR8DLGv2A+2UCuvBq80wJVZ/gVeLUFJVQu288iBCSmCj6Ykwmw3BL0xQPhYwXjWKD5Os0uHX4O05e3XeTWAPnyhqnBgfa33ABgQMbiBUrgPDUHd1IyJfeWV4NObAZgUBkHgC71izJKpem5zNsTXR5O8wvGUShTdYw02QjHgzj+4KfkszEKgG8qypaeyij0sxHWGyrHZ4vRWHgjHLL+iGyJTUPmdZhtDaIzgzoYGi+ZixN6ODgf9gFxAgUYBRh/tMVxCVr3tylSoBDRFFI5MHPEhpe4YMZMajysZwXZPh/DQuyZqMEKLirGLzzMQlECNVDsfSUg2xMD6PLwrCAoDOF6EBaHRXQh/WqgL8+8oiHg5JlYSnk6TH4DmB27kSmnPr8HacvbrKg1eOGEq6cy6WHo2MyJn86IES7qlV7oHw0sxPMaQmUJ16nQHdY2vq9iklMJLW0m+aCMOKostPJPr1mzi4kgplFkNB/cK2g6qCJDMhwAjwxI7HyQ0466OBFbnB9VPeBgYPtFPPxF06Pox5QwL3MH1IgFYVlUPgv7QF70AoCOAFgR/wCw6BWhQ7hpBh1XfbG/3KN6EICwDYjkkcesUY6OPaMCBL3Gph5JY28CX/VeFKYWl6T3Z6rkB9x8CxjYU87mBhbMXdyIhkDSWaUEAIojS2cF2T4fwaIAWsZdZEUPpKHb7AX9Roo48Im80gAkSTRKioVAx4YsJjTKyPN8tM/uGQAKAI6ShmsYitha89YKNowpj7x6YZs3npAAmIwaRqQsSYoLUD1j7Zl1uDtOXt1gLsI9YIE3TRouMRaFxO4XsK6iDRhmQ46mhwbMqNSJSm5HKDDnRVsOx/cVqho7QVqjqbPeGUYg0dYkBMFBq2WesCogiY2Ue8XaOQBeZtqr3ii3pAwwiVmxI1E1xx/8RxGmpX1RSwWgfEbSmr2lDowNTiPtU0iZygrNaPlMgB6945ww3NTvEvClOKsQ9AqYDKVM/DTAp+ZYnmRNIMLXkmRrOaPCuK4J4rzXGriezGZpyHZPhfDP9smnuHrhFKrFNq5scYCEChwC1T7zL7EHCMMbQg3zQxcZXSD1CxC+j4NAcqV3frlEFVVzXWWxmNDYmm8U+svY6ft4GBtLsmfxcAMBvrcHacvbrXweLOc7T5v6mLb+6XhB7TwU5TTd8uC6YR3e945MK4C1r3wlKUxXAIBOZJuiJLY8xxA95zH+zif9jwP9zEOwVRvXOGUCiv3CMJfH55qAKV8YBMRLiJZsbDGHP/3Of/2cf/uUt1vAq9fAbiwuJhmZTiM+5CrJnMWshtp4YFfo15TpLS+dVwQlP6cmNbzUKt1iICBqmCvKYbOQnw/ghjTOOWswlTDRn/SnAdvDie0A9Fe62wAisMNKCMtlhQHd8dIltYNxKg2EB4ujXqlyZs/R63B2nL263G95xnafJ/U5Lv4D3D8tDg9WOXg8nsgLBM1c9vgCLLe1P/Qh/wBzP/Zn/sxOgHbGJEFcUsEoHzhJ6Er6JYzJLcyXLsxHmPg//rxj0yesHZb7QQ20TpuzDymLGO/XG2D2SZOSoSvTL1nZ4RZ7QMJWSQbINQI6JcqYKOhGgjEWHaJnHfAwT4fw+J9Dx4HsnAdvDh+0JJQi4QqZJfiMsVkJi0lTSB3iOEoK7YkrKEtyE+GOXaZ79bg7Tl7dbne85ztPk/qcl38E+seKh76JKh+WOUw18yKo12jXWmvP/o8LCzSerH0lF5HtMOxHHQgbEAYgRxDaJl+HzIaTEZ3ov5jiMAiydcNCfEPLKdviU2lMoo5wTvLnkyhgcymb1EdMMjJkOPZl0hgEA7lZxIVLdmecAjcMgzbq7Ya4GCfD+C9j6EuXGvBwTkO0YmnnUyVQJcVne9L8DWcco0K+IgYly84cTC2KntCf7JcUfcVVabXu9bg7Tl7dbne85ztPk/qcp38D5jwUz5SLHFn2Y5Th+3hVgYjkOsLCE6JkY6SRrxHMit+0sAsxWULW5XsSyOquD6wwXDGsbbvGCFG0as7JC1ZTUHDYRea2+tvgUhcoYwbVTVgvPSDl2DukIvGgQxb5j7TrC3FGgD5XjEPFiynegbEZ8nQmFjqWp7YoVs0L5YkhGwuWvMMLzjmALMrLNAnuDpHKAORk0cbJynZPh/D430It+HA9k5DtGcf2lYypElnMmt+bBuyA2o3XjpMZiDjBaN99pSZmPaKKYr0WuPfaDt7gM33mUIrjgOR7+oSgA2x63B2nL263I95znafP/U5jv4fIPFWN9wxh4HSMoAph6kXSIlMFmJDAULawawYkvTWYLI+rLsPqM3oeV+4cBfYURQFin9WVicQuXGBRG3iOyajAjACNJ3O54N+whJL0y7yn1M5SqujKoC0FEYgAWrgEfHZMFdsHMNuQDnAMiIWJF7LoiRpWnOv6IirtCr7i150FvuwKyhsy4ux0giVK82tlLnAG+EJOITXt4fH+hHCExdj+lAWrGh9I5THw8JmYRleIWwGoweAFM4uuEzmxc0PmBYv4rWFO3aD48C0pQuK/yMZtMdDQJdvW4O05e3Wf4mw0SGVytQgqyJwEz5jZERq6qt2vg6I1TeEJwt3gaY95dtK3adIzmPDtcM28oy6fpvBertNWvjbJFrUnaHKJfg15boB84BIAZZPLX1mOBYU2+LhMndXWhk0rmGIe8Bm9N5Hno+UY9VrWr3ZWB4J7rBR795pfJwl9IlL07qA2HtLJWMK1sMwFxDH5syHUwA3zROZLuxqsp2EronYzEfyTGgn1iIZdWKCVYe7lkQFlxfKY4CGUblZxizcHDyzI8EJQrGUDnTD1cLGFqll35cPtGKaDAieChUqx3hg8tdUZJAYS1lsEMVWJ0GB61Lxwyms0LIrDYmpCk6hOx3TSMTIu+k84hdhbubz3LXCERgDXmDJi3gtyNgaG08iV1uDtOXt1xU459o4rUvdmThLwhnALusSVibL5wJiM554F1SIoiC8C8AlY4TzeIkFEyqIMUfOWBYuuMN0eyN+F4xy8Duy2gJ/agr9wZUTDP8Df2i6tNSIlC8llEsWXtEuCnvHPwsdj3i1D1jn+GaJjSvdbgbw3mESCBKpQ1qFhk3iKzEFV3mBxh+hwdpy9uvUTCBNZU18TDLwZr+FEJAVh+Vz/ABFuMfCioSiO0BEIBfgmLcoiQJrmb8zLGAeLjArwQc5RjNOvwdpy9v1gxfEaipaWlpb/AIVLYH6/B2nL2/jfB2nL2/jfB2nL2/jfB2nL2/jfB2nL2/jfB2nL2/jfB2nL2/jfB2nL2/jfB2nL2/jfB2nL2/jfB2jJAt4ziM4jOIziP+ziM4j/ALOIziM4jOIziM4jOIziM4jOIziM4jOIziM4jOIziM4jOIziM4j/ALOIziP+ziM4jOIziM4jOIziM4jOIziM4jOIziM4jOIziM4jOIziM4jOI/7OIziP+ziM4jOIziM4jOIziM4jOIziM4jOIziM4jOIziM4jOIziM4jOI/7OIziP+ziM4jOIziM4jOIziM4jOIziM4jOIziM4jOIwkwG8Jf/wAbR//Z;clipPath=inset(29% 3.33% 28.67% 1.85%);" vertex="1" parent="1">
          <mxGeometry x="140" y="-980" width="50.39" height="50" as="geometry" />
        </mxCell>
        <mxCell id="EDQTZBUxX6hISjZByNQi-17" value="" style="shape=image;verticalLabelPosition=bottom;labelBackgroundColor=default;verticalAlign=top;aspect=fixed;imageAspect=0;image=data:image/webp,UklGRjh7AABXRUJQVlA4WAoAAAAIAAAAzwIAGwIAVlA4IFh6AAAwxQGdASrQAhwCPnU2l0ikoqemJTbKUPAOiWNu+8mxGq8F/M61BzX8Unj31/jJl5TBfwDl/+h/gP2j8c2OfdH67/Ift1/b/fH5D70Pbn4P9lfEF/b8G+0fMc6A/8P+U/LX5of7/9nfdl/V/9N/6fcM/qv9l8939t/eT5jP6n/r/3K92j/p/vD7zf7Z6g39U/zP/i9rX/xezF/jf/d7Gn7f+nX+8Pwzf2D/rfvB7U///9gD//+290p/l39//xn5IeGn+J/LPzl8dPr791/cD/Ee4ZlL7Hv9v0O/m/37/Y/3v95fjD/Lf83/OeMvyy/x/UF/Jv6X/p/uI+QH8jsr9k/137RewR7PfTf+J/j/8/+23ps/53+k9TP1b/Cf8r/Dflr9gP8x/sf/G/wf5P/MX+y/6PjQfav9f/zv8x+WP2B/zf+xf8v/C/6b9sPpt/uP/b/pP9Z+6vt0+pP/d/qP9V8hH88/uf/f/w/+k99r/+e5f9xv/t7p37Vf/spjYFBV6fT3yprpGypEjZUiRsqRI2VIkbNdU10jZUiRsqRI2VIkbKkSNlSJGypEjZUiRsqRI2VIkbKkSNlSJGypEjZUiRsqRI2VIkbKkSNKkg33+zKdUxuouSvcQVLNEhN7mqEnouXA5tdMuWbrFXQE/d66zCw1NlF7pGK3es37yvK3Migu9DmRjlBSJzVCT1pWIk20hLd7bQOZuazmF0qYWT3yprpC+8vy3NAV7SsoodWpSVjX+zPweUb8f9wacd0irqH4jnYsghMbB2T65X32mab7n5T1vshkJGTovG/P4r4F2oIKkyvQjzZAdmS9HcSFNzTYklFsey1aMWeCkYTDbcNzRFWfmsanP7Lv0VrudKkXlkWT2v8g45kO4PnGZQloFlTXSNlSJGyA2LU5KELeSALOP9GXEaeZV8hzTMbVcr/mlEJsqaoc9xm8lBsdIcS7gjq4YkNjpUwsnq8kTzuro7+b9NAtafTbwFk+gfk/Rh3QuH/yODoeVsjuZJICaf8ErnDGmKynlXmVAkO/rIyIC/Pe65i6OXJxUYL4s4jA2tcXve2bn9PjwfM1kMy8m57RElHkOM+gEgR5z8kqLwWtKi4MuDyTkCvBCjGO1nsnowqnVwxIbHSphZPWj/eUK37keUgFPoTzMIXv128jv4iyMszFJf2RzMCIFhvNTEW5t3+r/yrsde20FbcLChG1R0x0jDAyY0893s5GypEjZUiRpD/2TFfItE3Lxv9ndxDQOh5FIYC5H+OFRW2jL0BDt7Foc2p1xe7wyvpUY24jJ5sFUtKZ3hrEQTL+/y/qdHKHzgbtKM+aLViq2kNjpUwsnvkaUDdzKgO6ov0x8y3zjd1IFygC+cZpLdlqKYJ1ZNDRtqXjbZKAAckdauU07WkjQ8ed2bo/I3J93k5tu6F6ciLXIZUZvT3yprpGyo61MMFncxVI/NBfIswQ4lvgsptkwt8BPEoLKszs0e1rJ2HzpyPfkcRiA4RycEnUzRv8yKgULKCW99AWuv5GiSf+3hL0sSXMh/YL8y6W4CofXpIT9wU4oa6lbMKyMDABB+oj0qYWTXZDqmtM2Uu+4ZhfOIA5NLJoYNWGRYns1sg1xabEtudHlNdBjlkaVrsd7vziSBz/DAzM1V4GtCM7zMiryUZAYvYcwj5UkyhBVdXqbrlmH16j1gUrn9l9jao7r3bgrwbo+LXwNdQbcWxID38Gdl2XlOqQeiO+byocCHCye+SXzKRgS1x6tMGVrhj0Mjx1TLK7FEfu9Rs6FU3oB2qKZPOeopt86uf1uLNH8gVHfriCRz/juSA8upJWmRjheWjWSsOhx6h6AAu7HWW8cHDalkLOgHmCWho+CL6+7yJijRMoMSGxznhnU9kM+XTAi3+S9CKaST7jW7f8YmyCg5ejuphNSGE7u6ZAq901/jtWkfwVpxhOzo06m5UDR6RatUpaFdQ+Re97Vgw5kgkzQ+Vd63NAm0udR8YL/m+MY72XhM5YUyN9gR6nu3SyMBpa/o2tvv8Ibqk1k9s5kMncw6JZ6rB+DV6fKuLK0kBs3pwKSseE/XN34R4bbjLfg7R7ZGwjrXQs7W9DKhCScgtm9V/DfvTZAHLqHZDci6iF4+sS8qP2rTa5mUW8s+g1qXF5QuWZn4tstr/td3YcsHnja7wJmsXUXKwRF4DEVQy8jpUwnagW9iCKmpIdXz2KIq4dR3aCjpUoEEnJeQceOZ2iWA/Ed9gkykxM2jqv7juSoZarWWu4Mmcu3rD6vgxzafIXNQ5Rt4n2mkw//seQUYKJ89A/7cWqSamAnHvw3gjavVTWp7JL5lI1g95jpoTPYPeaMZ9bi3GqW7m7+clxXfQ9nmHen1hFCMtv+fZ3jb3wQz+EAQEZ8prpLNFLkm8XTpo4CuRw+GVduQ7yupz2GXFnkPW6ccGeNIhCbgdNOXOMDYvxzUsudzjHUOc1p6rF6e9iTWMKWbbkICuWp/uXQq6TAkvTbX/NFGEyniNnIcRdN8ipBDhjfe8NTqfjxGXD42AtKuCRSJ4FQARYttFajQawFK6K9jSSXkN1VIf+ZP8bVsA93AABJQcCj0zk89syIN7uf2M17x1/e9llV+S0NxTSphZPYBOuEXC58gc0dao2xJNkFTvNbMDwvfUsBog/qhUgibdVi/hK1PyT7JSLeDGMhMnzz8pJVHmzJ58ZWUMQ4zSlIJZ+Q5q1mIVeLFQT/64vP7Q8+QtjsJhI3lZUTFDC1wUi8sIio0UKSdLkf1WBCXTmAW8/VahZZ4uXAXOQFc11s4JPKhDkncSvZ5ksRMRwxI7FM8d7yPIdyhI2ubO+kmug6nXCVKReroXNcbrQ4q/ESTP4M0DCRiajbyCTTV9OLUbF+RQNmPi64Hdl9wN0r5kd5EteTt+ADca8BftjsEGY4dtmVjuKFCzB9qz5zDFgh+hQTERO/vCl4zPMvbdRluF05kIwAOPXZAhhA2/yh6IMLWZXM0Su8ugaR3LFOF9bdfAig2WZXepkcmGNTHY/go1ndxBFY3HNe2aqYMDHk1tb/9N4Ka1h1X5WcyzhQt/r/B/BTBR5KDhZL549ruPXhqadcIk6TLoGRM6KaD/tARjnXkpOK5Ym9agc3zyTfrk90HgSZCgWuOxRgfDvRw5lzjPUCeUMbWv1eHAqsO+DLL2ZyTOtKE/c3kCL+nfgy4HpqDLaPcG/N15BXuloBMT1mCwoXmgMd8lRdsdvJ/Tvsbh712FGJLEPrJRxAHyA4o9TFzjUiJ1DXFy+cEKhSy51SS5TJIIBVQ9yXxCCbAzh6q/YLFCj35BHgkshm3sRQb6roh1aSNUEikWhzhdItLSCJjnQWSDuES4aoaSGI/ImpZ8qCLv0jL1BLwzMj+QlPU3+D2I25RB1eAZvE7CiAUGSKZtmghqaXHURo2z3uL9R5A6DlfHhOCN6Gk5sbzX/+22YDj3ZQ2qq2djpUWFG0hBYmRh5PQSlLUgnnl2yY78KKiZgDFron/pfa4Oq4ChWGMCuH9nIzhk4Dm7V5Eo6a1q5hhjQNYzvyOKWCscfdOvSFt2ijsvggbfNeqwRhfAVc6zx215wkzBfbqr2gXBpee7Vx9nqKjG6SRfPBdOtr+oLChx+/EkF7n2mYFVEFW1HX24xqr6yyXdlIjpvnh331vEzlh37QyUPLJ75U10jZUb/wOEk+apKgrKELCbQXUFNeLZOrQK5Cdb7iKbUhXR7snHbKTHi9kguT22wcrfDC3y1j//pr48fwn/BW0zQa0luD0nXkFy6z2DNF4JxwfZi/EGv4kougv8hPRxoBXd6XByBboH3szqbC1XyYbi5Y3DxtKlkPk4rV0IoKvT6e+VNatdynQm9edgUW0xdWLMrqFpfgUD9je27xTxX9Q/oRDPGXwwmhTOYsuwd64DaZHKT9SY5ccAEmM0Q6z2Qz9Ir9v/u47DJt2gfUtAUA2mVMlzY1cDW1UPEfmFG0iRsqRI2VIgFsLaPC3AGOrRoqFpWYkGtNnaN/AVY+V7IqsxP8zcwk3ZsV8oKf6XqM328zU97aTvLZlpJZXpZNsk10XUUhgRkkBlcEnKG3CbDJrsXn8qeyprpGyo6u+MzPYGFx6NgBz606Za1O5pc3Z/xlaKyu08gysSHDtopHCqRVJFL1FXXioR1MP2odYaHkyr+nJgcKAB8CJgfSMSBHAOKxaRiLL5jHE+mBsJWCCZHgnDRBWTvnYVen098qa6Q5mQ2Hve7JnLxXCAQIiJncmZUJEEIEzhsoUCAbGgMgIC7JC1seP2yws8nqGvKnFPn8RkflI00h1C9UmJ9PFnGcUHn4BxcRcK410jZUiRspiHbHikz0Haf3zcUvgsZfzqu80hriY5x025pCMkypaCxq79dosIXP03d8pHWCS4z5327+Rl+y6JILPckRgbgVELjnovbNzJqitdU6vjM3MESU4T70gZNK0Ad9dxldYxIbHSphZPerIF0/fnx9K5ElqvlJfpcGsFs0AqHwZZu237wJEPoPNuUJihWIqUg04Tc26CHPrXuN76n0dPybJ2lwjUQZD3p5r0+tHiSyOPxL2kUL32/hAa0ayOKi+TDCx4K/cIyEDmx0qYWT3ypmTySUz96B/9/QVM53+7oBONCQMjibp85GFS/R/HF57i1t7dFg/ycEGoI9ijmW8cielo2bmqRLcL4QPf8Fxa9G/++2UpQnSTVr9A0M/ZIwQeOk0l0wnpBzNHqIZ53YEXu3oMq5yqtEpSYIJXcz/F/bUUBTqmukbKkSNlSpmmNJmio1NkzEbkyOamyZkc1NhSprpGypEjZUiRsqRI2VIkbKkSNlSJGypEjZUiRsqRI2VIkbKkSNlSJGypEjZUiRngAAP7+4nnLrGk38PyVEF7eoGoiAAAAAGRvgAAAAAAAAAAAACeIlvpW3UtMv3ACZApq92OJ1hcSVfD+bA5qr+OzS9wkI62LIdhTyPBAiK9pWV7N9HPLHnd9e0sOQhG0E8c3r8y2CQNPwpiDh8GS3WJ4Gi7Mmsfqrjepiy2KE74EvjoYi5EbCqFVGiaibtXjOvCt923VZsfx5tS3E2Cc9Rdln6hk0mAJJ+N4/vdXSQEjOK0Jg8sOakauIgdjp4CeXIg523FRB10FUumoIa6mzqco5GQoGVPBYt20gMA1rbDGT8cn66aW373A0Op7IovrVWh9lULms6EuMKsk9+aZ3dM+hvHYFYexxRkJk/26jw0GznVXYEa+odCPQZeJDIkqdO4Xs32JlbHDOFpcK/jpKkQcY4CZvuPzPBVct9ATcu1GaDmHVEv4RcZLC18kl0jXOL6eePwylJIyp/JSQd39c4sfoRSFYRkXml0xoEA1L5JnDoV3rlK5I9JAy0uVd6zZgrhCcFFqd4Az0agC7bywbq73jpyHvz+lclPl+G82KnalfMGRTp8Q76mw//EsbDHjgtLUubNdhkkUwzA1Jomra2JEZ+enXSrlBNRevjU912/peVeBMdDw3pQgAg4dWhs9PcMnJBTKoLksoD5saONQuBACOsK9v8gUl+uf+zawcZiDaLySkgMALgcVcjdQ9DXL7JWJqUytBJVAGfrYdKKlaoaroC9s7b0Um4ulmaD9r2QnjLlfEF5TbTC9AJr0TsAAaNSmTmUN5rpTyY1tftDnSBKYeJXKRn9I2UKu534bY/mf1FTCTYfNTD9qRnKSWpEjMBlZ59Fja6c9osYllvLvjRE7MFdZP3BudFE9yw7PSsXujXPZPkGuadAJnRh2UbAc79Eu9rOAbMQIoAd9indLAyF6S+ll5+qi0AAGrpdtZUol7IUqFF1FkQXdSKJHHpFYhoPSqxkVj3zuoGwLvXcoQ3SYt0u9igFMBzjXprlemivjSkOHkgYgb/2jXSHuYLq3Vd3qvsMqGQbNhSIbHuaaeL9dJkNVRZ7z3jyRmcUFd4GQbTvZdFNUEnXEWpUey6+YlW8iNhoWStbDP4NCRaYpYPsvw2enQiwP4G/b/S8ybZ7xIyGxzsds5ssjF5mTtbduMZKNRTB4cXV0Bh3cLztgKddUpLj2gg/PRk2guuYSXHv/g/wOcFu0htc42OfNtdu4GpN0SJkj0oHfwIWyleNoquLahOKKCRJzbKzJDPtq+/q4QANAWzCqPOW4NMQ0kpETw161ipSAJJAnt5GM8/yHCNPC+Kf/nKGmj7sMOSqfWYr1OvlkWTaaj75LbIpz3mmTpuKeSQk3PpzYl1U4ad8EmAfEJnI+IF8+BqMZskqh1CeLMK5hMXFIAftEtYi0IE3r4vZZi/PAj10Q7/4fJf8xskdHmCKUocDbG4tLDe94ztxNgeqAuZgNrJUJ794kjcgBVOGTklRs0c8nhv0OMxC64lZqMas2YBrrwn/FnCAAQeC3zfZumZOyeNM6tzUGwefKYq8SNZ5yGMOKm2YPltuii8PxDqvJ1p6nYzzIc7ClcNbgatZLqLP3AzNm8JUJCFA4lvU4PhQdGj8ebEoYFrPKrY22UdN1Qmutof9iPqn6KjCZ+9Zv73FzVCCqEOETJHxhIS6GjeQVX7QEcK7joyDN+J0DdGKXAe/iLPLFe8gHMIABmiJmSeXQ37RqpOmI4MwOI9j3ckRDGMW9IuMcFRndV7cCS+54lGbBBB3K7CrqIK+iTM3v3tWqsAfxjV66gVKnFej8oAVqZr0sIQneA0bmqS5c6Z6QtG/wgW0RjA8H4fIFEMpQOhdSO+PgXMpXU8SY75R88+Rom6u3P+ZJ0H+3o+mayrXGUnPsMF4eHe3MJBISx9Z8hHUslkv6+xZq+utREPtkOXyclRUNIdRd3woRAmY59MzkU5oMXZoDkmTzPOXr2bh8nERT8huYmS+sTuUEaiWv+Udy5lRrj+v6EqhPnSLmX+rD1Eo5vE9dCWhi3wYApcZUxm+PNEGh3lPYEZsymRMGU2gTdYwgcYUChZbNoFNjqFgEK9DIgBeQKcT3lQyelncE5BoRpIfNwSWWePtUaAOz14RJjk16TS7Yg7Z5F9vM7xMA3wEIhCQtk8VAgPQeZYdfxK1Gs0EFUlgWDQ31BG3DsYNRQgmwtW2vW4GpsMhloR8sAK3JDFLti73Cm145XX9nCpsRjTYOAlDxcyBPUmEtXFVc2zy9ZF6ZonSB7cTEa0iVO4xAC/nMnbvWNPv2cm638aDLNAv34VfT8QMKDAPTATau9o3woD8nYVBk/67KMLy0ek+EZMGYBjJcS2NuqsIqY9b6QWZ088Csa7RgxNDReYrd6DdYEnaZcGc2zcFCQ+E2rOrCuvG1AMLx164LitarHIZZtPwMn6Kl8RCaSfJAbnn6GWh/iN3trUlchVDg6MNVxBwMc02mewqLCUSZkdESWysZ5NUdOPIXDCaoF6iRKy2J+IHhtxJKEXLlvKXpXgfQjvOVDjgQXVbwbGdoAXVrXrbxY2ncN3b+wIxMbRWuztxnpOvkGQpOA/Vc/XeRO+pY/0dQwmOI2vWfYPPpfG46uvRLqnCi2GsomWc1YKt91/4rRss7xOb2809OT7zD/PSLTNbPVhd6wU7c4A64GoX0nX2ZK4FoToq/orDoX5wEIZPhKJwfizoyAL4nopcZ1hEZblyYF65uxgaypsbpi0klAKWUgRBOmd+ofUdUEnPhPFyBFV/thxOdKyaCBd3bxfhX/UAIikqcb1M1BpObRhdUfkNRc8+FJAP2AFdvsIcJiCLzJGhknsaiYAS3rSq7ewAQ/YpprR/tddtliosmFxtYGQQpt1VtjXR+KHGw1u3ms5geOPYsH046jeKDb8AiqkI60JmfV7AcsH7HBTbaetMJYwKn/92y+4u+SxEeDKh3uzNuVrT2tzQBmHArQlr21rsm7d+8bZUblsOmg9A0p3UGh5DhmT/hNbcGb9qNWsZdleem6kyCV8ncEvEgwO8M7Sq+APSH2vxhdidBCj0d34wPS8ZXcnU28SIF6QCZ29p8mQ0LO3Q2al3CgnL6WPZth6EqROXTeffifBo98actUtIHl6vwO1rSY8KFXRXFzQewswd8OTQBiDBsuNgUq7rNvfILme+mBApP+TEGfv5om0xHhEWtWFDV5qtbE9nQ2UOu74hS4DGLmpN6cOT2b9i+zju2VaVKKIX2DDVYsI9Q4f8EHJv2+RTHra36HcexRPTUlPVdRyoQumxUcPsvWMJDaoUr2D5i48LRkFEXbF2VGtj/ydLwnnD7UA0rUrTtw4OvNV3mlH8opbbJzyLA2w0CT1V6GXg0w5D9OKuqPxfoSeItJDNl0Mz+mTUjTyRqTep8ntY3ZRWfaQ79yJcJvhP2/7acDBdQEIvGPVp2g7aEbys9qw6YEcJ8Z9+50Tkvzmb2x8F5CiuhDa4/g9zUpP85JFWBcwLhktkO2a8UxhEtvNVZ2moQWYo25F7JX0c+xWL1TqRfndstYJykRBQkLwXxOYLNvh9oF2bSg1DqZB4HrVIJ+f2E/xl7UDVikqw45oF9ee7pE4Go9MtkZafAyoCV06C8HI4LpSlxuyfW7EnlgHBI10lfOs/upEmq4WmH2qIPI3aWfvoIoFq5WbSzadmkQk9Y+D3zx0vEbd9Bp47RW/XM6W5ejmLRz5/62Gc4ztApzatGpzb31+bgXjuJkNrY52kJusHwFpXRHpTyZ0Dz3t95qzHItQAEHz8VpYiQjSZ03MKWgPtQgV7DAK2C6+yh9bi5qwYlpqqVfMy1cyNiHsSlEod5BzNVhivIdrKMg7kzbPgGopgBNgnkBeVZ4OFkBwK55fXrN3FMKNZMrhgQnhpcAK9jXotiJyJYvjdEQZjHsiptV9rFKeQVuktJXZe+6eFM4ZFze6zDTP6kZ+F0gRUSmBp5bKwuGv/0imLMDrFcf7nZIL0+NiZhqoR+LqiGX0qX/XfOmFJkawnkw14FkMRD6VN0CH8HXgiFUU3143EcZr7xfnojFCxnnGfUTaEOpE8DMqjYeCJ1wEqukT3eGCv3PBCJ/vXnq2XIP+KJKuuN69HC0t0zXzOQRuB9ruttvLl23rYmFK3SA5HxJN+IvwyW3MHvzNbO25/k4RxnUQAG/xU3Jg67sv21alUC5RyDpa0dEPV768W9H1tgKMqTaXRxIwNJuGxtusVegQTRSJJ7jTlsZRicOHJmZM4Qn+RL1fYMj2wvls8vjbVibANL0nClhpcRKB4ZdQ92UeCMqeZhgiPNXWb0ypgRSn1o++mvoONp72JhhbwzYm+1XpIZO5LtX2+W4OJaM+9pIzUM3vrdNDqF5Yt/Mec6KSHYV6QuvdKGUq4tN60Liq6zEvnnZD8pstvp48TF3LvHOxWDP2Gz8gdGPTkUNSPlfGtW4+w6vODR4mNw+D+blbFz5ClfB+NIRnXwKRmlUTVRkeNBojwE9/wDbt7dG3JbHIarJS+0BSZR3TxV8PX1H4J+1reFDHPo1AbnEletZetkaQXTAg0GJVpnXpRyH1jrsZKplgACZDDmchz/cxp7QZgLpeVDn2VzQM2sqZzE0XR7erWzy9LGncRoG2klM6I3MnMDHoLSfdsatp1b0iCu87IIX257ulwH8ByJzC473FspYot9sOZrrOfzOb6PxH++sVQYdnN2A9xeptybDSNkd4UeF4erJ/p6c4sK5cY2jIPOmJosWGh71XWFgJ/1oAdl7zobHARSEZVd+xeWe9UXhSmbNn+u4I5blrcD4GSq30AACVYEOWDK3dr24tfYRjDWZb8EbQpn+UsRc0ChWjpfr6q2g23WM0NGUtc1ZcG8FqfrYXUWXO9+rdby5/tHmyBs6zn9AKluFVkc0BkB+fcOtRr9kIC6Jq/uADMeKff0lhEAMMheS+MHYxKwdYpddj6l3XB5+AsdmaNp2vUCepcUmFIiAgYaDUwENYzk5YT4lIcLJJvWtVHVoBdMePL9Zvy9841r3r+8zAw6N7bs6VjMZF4pIMVitNt8PR+o9kV4AZ3S8tRqi0m6F6BjnxeNBwRrpuO9Oe4iK0LYFNyL/bi8QbM2AN4Lh2ppqkb8Jil21wbkGvYisBG+ckBAAE19t3vQGr26xFs5ja9+XDplYmB+YpdGzSqq+HtBRtWrNnnrfoVhylPJS9ZPMmrVsYxIQcOrfhcggJ4piaVJWlGyOECJQxzAwpVT7vD8T92br6qJQ7H3pO53fTP3QVEQ64LTp9tJ169PiSyLh4oZYgHKx7CxQXfHSUOnr47Gg3RpiVQBNjPb+9z3Ak6fIDz8Eg2voqc7XQByTiq/XKdpUb5JCgUWW6b9s/zM2ucJAALkYYNG2ofJIvl+FP0r75trZwdGRHoRUNkgLspl7lbYjrOwn/9RVRgyg9CBRoN/6IdgCcoBjaR9r0Jk2KgXdJBfYlNalZKdHHs4d1EsZLJV/Fjjv0vWpEZAreRqLb5IJiek9IA2gFyEmDyavT78mpQiwn185ch6IfyhF2T2my9kZOr/FGVzlW655l9S9vqQeiiiNVyHaMHUZhl8U1Tzs4SQN7r6rEGyvjFoiKLfyymRpmgq6+5iPO+7/bBhTls3muvhqnXEwD602ea39Ll28TfFDoriatcu847d4b0jzhoDsIGPA/yUjY2VUxOx0kL7X18vr+ZkvDsK/ojkT5KjNkOj+Hd4tV+2f3KgR8SoF5EGhlCXQgC5TgPCF26y7kO4WDxNzy25/7yE79KxyHKQ43N5LRxDvPX0XYzqrskOzkKJWQ+QRUgzt+V3+9DDmw585ilV95sAdwmUuNruLVZ19xuoX0Sm7UTxYjzuKv7Q3KUC2b8c1CG+is159CYWdWh3mlnHjQ3kS7B0RSMHDvoQTgfqHrDU1cJznUJh4OUmk62xh7GD41StMgeey9u62WAs+MxxzoHakoc+5/BcNl2YV//i76cxxNd639BWDNlLNwzMLPxHNrjSEe0RUeUcm9XRM6U088gB7T4/IyXpA2b1JSKR7+bEvHy1spJYwOECQAP3waT1pImc8JGPoCFcKlh0lP8Xg1BI6Bb4Jkk+FM1XYR9pTpm5Mo7Hsi+uzLrLQH2u3N5IDeeBX2RxLluOtra5jvumrP4s9kdDQ0+2pkVZH7GslQsDeQdgAuSsDN2k5oFz6IWwlaC/tt2ccYm8nRnfKVFOUJrnJC0g9d9IJv8tyXX7RggTIsk4mxVfWrrzYPmDmjCGiI5dJuATQ7CW3uITizeWid02z+xV1VSKdGIMBaJjT8mZCyHnr3lBNZQDWDeBaTG6kzPT71zSg0q7bfMF93+zPQ1VXg1O1BC9zKnUBFuuJUcsS7HZAxETuadefT+G12Eu56zIEIjr8G43z9P5Hy5MjjM0DT5aXkctuZqVjqQyQMWmjL9ZlzCpuoDo/DnH9KaTmwks+nr1+XUeEaO0pUWW3Z9L2E+Y/eAR99GI/SLz+WAwUCtsLMRXw8Vv6zrYXzDdguDvFB9PtYpGBVCUsKFFLu4AfwDUZ4HM0Zf1Dy1P2rgQUDyMHu2TtpeaiK7V9VVfSNFLDD4k8Pg7qcG9Rt+EhsZE1LAqkWe8VsmBt9OQ8iDgc8fRMd9YswkjAIWEgL7w1CGi81O7dblo/oExoOmiie9FjdUi+TG84rqU6dGB4fcB2fX162KkL7IoTNhHqFWpdvnMP9UUgMepscN2Jsu1NTWeF9plZ3bm8sAkGF+2Bk2dYX/Qm+YXO7HxAFX5n0qYvocodZMwAprG9tflvQ8YyLI1CzzoRv3QyEP281tLlbu2ZNQy873OVkM1ZQ7F1uo+YBzo3zFmAgXrXtMZGa1vYlFNyA+gdczMdv1Bg6AiolNBgJ5F8mCe+fpu4N+CyWncRXppDRPA4AKs5piY35WCsSH8hppEmxoYXRU7k06e7S7FZo3LbH6NzEwx2xSdqvagI655VKokGmkruMmqWRvlM28lmkwHzfAFemr2+Fiw5diPVbwD0g9fIkn/I5IsLwfwdJfdyo1tZat4G8mM7U3hNPoGpEySQmb4a9Kh7DKR0sxBOpqajJQrOX8QHUiiXjF3h9b4KYZGvrQgYguN8v9NzvsRuu3mM8WYM2QnYGEgKoegepW4DbAkMoy/EGTjpR+yCh1grbursaMi/zkNadFOJilOCScpJh7fb0lSzFOZvI5uyDfp+uBZwOxI520HVY+WNZuxpE4cxqGBQcB3wgmX1em/5kpayqee7Rbv2AIDiVbdOldx97LKj2dpMR6mnrTD3Nj4pXgazgzoJvbmrRFZ0txfhPhaFl8VXMy3ZKXa6xzgzYsOGCvhDxThMtkdElu1F/X17LYPrFho7nSlJgOEb3mOJ4A+dVYoRBL6CdzBLvdQiwBujaL8i3u5IRWZgFpjwWvCigMGdQAUgal4Hvx88mNnEV5l97LOkq1Dl3MzjnYmMwMWDSjUXFniBvZXlkNaE0Wnb7bt8cJbUOc3qdHuYuB1nLotjr7Glx55ShBAcbctLDsIfrJM+hsIsXGIc1QTOUdOeF2/4g357HyxMYfNizBM6u+A38aSB/IM1P1nLl63oyTZ7hR9Pm3Dj7BtuaTnb+1yifRhqagfMDrDn22ZxNRWPFhoFrQ2AApajKCCd3s2kgZ4QcXfeRmKv8AVo3ErLywf9EAJ1PLn1uLY326RAUVb8qkGu+SIyIez8mnPV4/ITqOEsentq/s0GQz1k7WyUYpC7YDOix8jeTYoqW310kvC0bdjwFcPK4bATGANSIgzf/dYpHZMCgHlW3Wo+CVWP2YkhizzBOKCIgASJplPr0QKXE2pvflp2froYceSwXPA+r8TwYVXe3FPGY1MwpMBPeFSrhsrac5C1w0j6+fpwf9QHfHy5GGbGDyxF436qOWs45RMVUEJQlVKqvzCf14tes/17UmskNFiU7RXPMeUawtJW7uKbCDn3hhl67rfRpNyCRCMV+0NjI1xqb52t9YjPrKafWvoLx/6V6AOh0yUsni6mYsAccLc6H7i/CGHoJvynVsbXZo9l8IMXaYd2NDSmC1l+lXDyrOZnZ1mZW0CsO4xKwAqGmVIOtIjGRQsJFuiYppd97pjHawmI71LQeFEh6THp+KFwiu7C27JuLT9RapmT+sRthyh5qKNTRczLoHo8TR6RafsLaUDZePo8P6XJWLSQ+XXTND2puHIvvGRT/036g6WWWWrW0P3X2fiDhlcAYw74RW9bLaSEPif15ul66cvqnpq0Gd4zhtm2GcKbUEiHmZR7Gn8q2KuOgfd6M9vlAhsB9OY9QWmZt0D6G9Rf0ouWiu4j/SK/+1l4krxuhmLjHjncNGoR9jYZDgqiJRlHLyc0nWQt1YTB9+ajzQyRk60lo5aNSTTHEyuH5tNrNMaSpNhTej5FmXEp2cCYuzc1/Di9WcbthemvZ+phoedOCNuVqkU15nDEDY9ctTXCfZ+DNnaPnk2m6P350NJIMgyIgEEk5gEBUi72vFSJOt65FWUXm0semdqU+gdHff27eMPHZUQAXeauXAWXoOEhlFpK0BCX78OpxngvpadQMD5eOLnDpICEM/G5hJOwc/Hv+WXjwcFEGE1YmiAlZ9LQy6Dq+iioS3KsEqtBC01i25zj/MG8K4gcqn/5PEgrJRUmsC+XneC56P+PDX4vg2H/pTmBjsrvPy1ENLjsQE7U3DlCJJVqrT5RLTonRqeJFTW47xZhOrCXf++Mzez6BvvAqD8G9peQ3kxaCrFcuWKTj2KIWES8p0Gh165jyDGZos8OcmnAJMvG+wVWqmnMaknS80iHa37fM7L0q7v1CegXN1xOzkLGYHmXqbuV5LO3gP4PhuyeGjEwLm7KHZnSuDL5uIeE+vkkKuhrvX0YSTHfcGwYvMbzBfUkkJgvsEHmQV3BPjiWTUHl59EC1+R0GFxrEt5bNUvs7YdhU6SmEk/UV4frs+emmi0CFQ6bpvwd0Uvw9QHpxA5y6fL32i7LWx6FWvcX7cEDeN0hugJfOftXtQZCS+IZOF2VL0gxLKIOdC4njj2wSb1YP050/K+ZGWShjx3fKwyrnZ9By0Mpnz/gZTR4pWm3qvl5VsPNENAgvWgrAQQhpZZIC2l8v6o0wqx5mJGNFhOA4WsZ4Kl4tDQeH8XpdBtN3U1Qrfm/7SPRZyZo1OPIpURhjZ69IT8RZzn7EOFqdaxTPIADT9MwL0xXjVSH3KTycweI1okkUaHYo/5kxxjajdHORXAMbSWv6fHK6iLGy3TiA1Yd+QvXaL6P/s/roUCedlAM41o4AfO/h35W6ByaeO3AWY5tdHkA9I3tK2XR/c5NsFWEqefo108Euxy6sCB68nPL8llwkeizkzRuLjkOBz1feZhy8IPwguKUKnWsUz+wAuq3bscDMP0OsReD4e0075EkjnXeMVcne32beFp5Al65t3416wXdyy3TjX+bQJh2OYUL/7P66FAjRAwLG2EE8qLwBV9KtwADyHT6iRxoE+zgYzsfiCEjOEoN5YEMuDSy7wyytcIPk9Vz2YP/wAyzgI4lNbjNi1+3qVTWFjm659HKfBj/NrnkGV3G+INqzjGqfY0MrxeSJfyK499csNEoQh6Y5bEhQC+nr8Qu7P+5XQLDiNcWE7HALk+IVemctajud7V8sh05HTUHmnrbvfq3oAu5p8c7dgg/l+cvkP7wIPDtZ/WObq5pSmpPx54Dxuy5CGy5F4r3v0Td0Xwqg78GGrioCAZqc3d7gZRcQF4SHlXGX/VZGYdzapweoTLF3PDmDL9UNk3J9VNCWaeTnjaWc3EyvFTrS2tZtJTUQ69JqeG8f5DYvTwQaQ2Dx9dKnyoyZi8XRwZuBLcXQsiIFZrtQIcKXkn3IFHFbBj3bS3n6F9H29f02NJJJ6HviMzPCAP8dhzHTrFlnX+/DWyqkIuchNYp8rj+fHq287Y26xc390ljSJGCWq6dRvCLpSCYzB3iCOmzk+/AwJEO6QlRrwh5JwXSs8osiliWCqJn3HRBP5faP95zkZnrWv6CAIbAvvywufBBjvvIwxfJfqd1PcgVXIbMVRf1EydM2dtMhbupfTsoby2MKHibpxnRYi2FcvuNZMhCG94lQkon2uy+95gSdrtSng/2TI3L3uGbjMKO9Tb08PAtZtVk9Pci0Z5Leqm+9gb3c7KJaRk3bOz9xodyzL3nh4L9FiVxwj9dH65wegWLn0NgDu2MAZ2wp3PP50ovpfg5GYarPvKSssdByLl9Cvm+LCl3+0O7AAXpogNAvwxc5edwthYBgRM4+paMo8bYCcYDuAUnPSBOxvWpp0k+T0blKkPR5vKhRe4uprz3jhM6+JiOGNIlamBE/89qtq967IGbpeos7HyVX018y+6lR8wRs0I85+FyJqDqR+HGxIsJ+Y3gLgD7X802h4PnPwxldd76U71r08REPgvh7AYYDVRBKVTkqTL7G0ZsOjYKelIGIr9/lv+LA3694X86gCj8Yz6mysaJBWGsveDS8c+5YNLdgLvdjw59cu16Byz6Qrz27pTUmzG03nELJMgkvTNHYPXr31+pPEzz+V7oChD3wSKlhSGNMwg24I/Cn9JwI+qvWSSMixifCF/oA5u8OZVykLvQOfuY9S4KcmWAXSKcWG8jjI8VG0IEy6yttJPhUcgx6HPufYm0WzkJG0JHygvO/8ufy83YHtv8dkL/EX4g/fuuUIgf/fYOsL7+YyuUmo4FgeK7MICBFptoCEAhweD7oWUOaslx/xOfBps0hd/egx6htqKEyOR6iB4oaPWSoc459ccUgrPS55nxKqrgjNXfmre3Pt9pb83pSmQqlCWhzSDdXff04q+vYZwb6uDo0tjIFxTX/rMf64+CZLt+w0U0OYmp3xntmpOp9G0pfUVE67fI1Etla4/DvEHz8MHlV3KBXQ40Wg0ngA8KlLsSvXWwczvRbMs1X76RY7stSqVF8a8mQB4hLTAXv8Gd6E6dupZjU2/K3Ql33v10WsBB3rY/gS+AkJnlAWoSI/Evmg7YV/Fie+59Nc/XlHrjF2RSkPDpT527vpdB4LaZvckKQKnXW9eJ5BHPrrz17xaS91wgLjSmvWvcLXBb+eENk9R54+6O8O3LC+5y5w4/M3qDqhwunARu++kiwuFJeJcWVcqhTl/yy9fYhXaypZHLAyLu278Kx3nwn7sUNZ00p4HQRR0hRT3dEgB7oJLhxMauuSn242JrGK1cgsrdsIzFnYpB8un+HBd2dEDG+hWbp671X3V0eemDXbaiuzE/8ODK9G0sIi5jbeAWfvvybY6qSxn9aXPzUpuEb/BaRRBqRxtZZ51T3WGv69jSt9JXMRTJG3+dGanuc1ZL1GJSID0t8Pfwb8hK0BWiLPLOvLJPvmZDEsAF1vn89JqsunyU8NEtMKadqiI5sT7rbaJN2HmPum+FWPI/Kp5CtWjqdibu76e1l2kIOAosgM/EgN5EO05PbfoTixN0j24iesULnOcGUp9xduJSiFeuxYviSLsc5iK/6qZ6iZlrAnz3YWTzZVTz4Ylu9aGG7XHiyLsK9UereaNyRqEb8I9JypFX9A3Tu+cMqjDQJ9/K0JDtiGRSNG+B9dnL5lboKoWLzhSOXgFdtxjg+35wif/pWhraZFpp2sQKC1+6kqcPlWEShJv3pC61d95JuHA9bTlkCfSzleWpxRUAVZLOg2jcbrW6lS8RuQ2saOGjDbzQQfcz9+n4dHr3tiyT6rC7Ju+Oqcm3P5xlSziOFXHPDurFFaUVLgwx+4W/qlA7QA7AjtDMCiYf+z1zdhZT3C0wOCmOuKYoa7dBahuBLcjlH6OODiGH6zHqfFAQBkeUxiv1/+vKYVql6S2/198MUx00sBzMZpUa4lzrGLY3zqweDzbVf7YWqZ15aM7JbBlPC6PJHL4FcYX9hOdr0Jw/ve/WggvlR/IPRj6YoGWUjgCMYEnDxNsKAN74Jgfl1fnJKdTrQhUPWTRTEjrpFTEAComamWQiZumr6wdQ97DIGU96kBtaf3ySTpkZle8h5E6nxWwcb9pLKn1bMXgKX/gNH9H99mthxdh9OkaVvv3ovyWKMi9KaF5kSMcCtJ1vdkb6PWl9fyIrCosq9Bo1rb/u9Vhfs1eom4UOODjWv6FxXi2bBgZC1cJrDx0BJNs7Bxdo86cTxqJIHLxv6FUXd4tQmjrg7M+BsGsZQAIBZJgsDgAlZhQ/+QEKqihjittwq2NaGf85vlVkaqNovgK8LABiMyr7+tLYRypwRSmtNxhctT4te484CZMoc8zDYjYHJvChBOL3YSStH7o1F7Hg64TshPkYKFqVBzKeF4/FBjNWYuO53t/k4i4buSAgeAXjHMxJEAG/rEqmEAKcvkudZEBHyEM4IWFGGvPxlnjAZWVtOZXm15qO9WPFcs3QZe+SiFTk4zG8xN+AbDeg/4oMYOS2VRSDyndJyyTRRQRv8SqJcSDlaxUWPYTJyNyGTRlrRrs6KutXnsgsj+Ms7l7m0GIkwON+3drzm6xSrx6r5SDG4JmQ5XgMBwvufMudkD3X7Hkj5qK8Qtg/uPDG0QhEdwlWuDWZt2RO4/I6MLX1W2jXYA0GxogM9bZ5Yy20+UdqqbXq7g2M11zlTkSM60+3IDhoBoe3IEHnEa/OAEDhzHdxNI8/IL1FxtVyya1A0FhdNVal3TtHeyetPoB8s/K0z9CZ7DLxvr+GNOh7W/C1MZj5Ct3uyNNLF5daMABHZWkb+fOoEOFsGhvQkHsyuYciho4rH4o1f2gg61EOqbeYIh7r9KLTHTDhTqCT0XQBq5mhxRRJxA1hxccgCAo75lygP4dT64nbThiusdDkJVbgNo7bT7TRT3ZRw0ToJvlQsjJ/BW33BWn02ZLj4SwuO5SgAzLpNT1/JHQC5QitCQo6GdI3gW21sZsb0/z6J3EGYVEqvoKI5V88FAhKSO1r3VDM6MoQ/RMuzTocDfg+UfK+0Q+ZLbQTQOub4ws0lvwsQ+2oXC3PfWqy0LjC51K/1XpXmNYFhBgPWMZNKD50WjsNGawalbMB6vjYM6xVcE0lsYpE5zJlhgqSqr0HR72o+R+G+xPsRfAfNHUWJLeP+in7UKoeJgg0FcOFgw4FXYsEtm6EnrJsuH9f355KvI7JR2y8I9opVrJvWnuhYmAZ5wLifQHezqHengKOMsEAFpXF917D3v0drbX3GMfrG5gZuwmZ/4xXCj7IXLF7Qtd1Fki8JATsa/DrzlZAVVWB9Fx6GotV5iiRC7ovwQSyJBYZyTvW8wVKnzxVETqFDHUZ2E4r9aUdTccPrwBNkOllirZmT7N0BZFnLziFVXZ2mC8NyDcy2ITLKYyfATk9UgJj4STEtw6vkyAJgPELW2EBb0X8if6gxWN+i7dQEdnDG+f/0/B86os1Qvq3gnhCg1hSMSBj+2IOAOUa+tjwLjbQnHVZrRUVPB/wA6pEA/GIf9g64Fp5rPV5x6ikhw7sW1Jn1nPLcBp3ywD8H2+EIrpU6x7wkumVqE5SQMVRd2Tgi3GoD3+7NMgJJJB7CP/mcSua7XZtCKme5dOG4iI+lwwio4ujyg5rEaBt+5e1PwxZoPU4INCxjZjREs+pXQiChNULQIMcgMV9Cn2SUkMJrRjiM/FrU+3gZe+cVMrM5Dy0rvA16PUfPZTt7OfNuw/AcmzU90GGUdnAzuEVyglQmL9H7lX0Fm+Db4NHW9PpdukmZsMz4sezB9ObLFIILC5a5vscSaYsIY8rSHJJ7qZBAEsTNliqaIddJPaGTsCx49/jiuNDzUF2kY8kIjLDbwqUhWVx6lZzh1efnmLHc2tm6c3c1iUodGz2qsDsWQ89KOLOexcGtHg1TKLDwY3TSqUm65tIo9s8PPsZjGUDP4KhEgAbM3BatoRsCxHthE7njKzAsyUqgB/zJOOp0PoBkDVhFc5B29YM2gWegqSgTSMyY4HriBiNDvad1nuNVRyEQZUCU06CbYZk562jm7rdnefUHLcAV7ZlMe/1C4s4Gj7MsIcodi1EiQGgJiSB05GWMI/NXNqG1IY2craqhd6qWMA8U8NENL2ApRALu+8JoV8trOnSK1u3Ue1MYpQhTbu6/1PfHJVQgyT+AwL6fpiixKHEjnzOOBBBS2HfnuUtZJKzJuOsDeHULEVOca8tTMB+75/6YgJHZLOKt1I5Ch2b8w0Z1HAbd6HHrYBZUb9AflYDCoXEACAQfFovVODUIGo061GACl7r+z5AJ0FpGgZ2GzNBjHn9zqXivn+Z7tK+5XqI0Apza/EzYiu3qdBka3Ak1Jy31HJbxM0duTVcMjKDF7HWkEPO19UoxBz/TRgf27fJBbJwAmQ3Pmmh9alEsyoGe4HFPmsZxlRNwcTN3eetOb2S5PVamwzQWsIdAQc3yH1mjIVj1qg5Zx8HcBAAE8sL7E/ynujqpT5ZEfbLdWhXy8xY0Qm6WZiTcyPrhT3TEYcVS0rXP/zleYnEZRRI4gXWQzyIRQ24RVIXtW0WrakjSK620r0v3fmaClQuhIyRqgJeNQZ+EZu3sPIV5kpN1hTHDEUPDcQLf3qjEPotIQSTsoEbbmTLF9gp/81wub8gwOhSCmlOHpTVe0jDxzAW7PepwO3lCTVVZI/+q3PneF0Gn81LFZNsMdkpwC0AtlA6xx2DIMWwZt1lXubMrSQUuAjMP4dSKkGdtb456YDq/t8rR4P8Wt+lsDdbfdK7jLYJP0oCbFRuCJqLSYWVeKrdjTu7ZPeUftHmvAWatOXFjPsCW1Z2hx78epc5w/jvsGijLp2hePy7949g0xz1Q23uk0eJKCU/ZRXUMsy+UZwK1p3KWh3HhqRvL+I/gC2pDhc92o0j/SPFcPG6sfU0hTDefhgBuzBdzM7Z656PVG1M2ipGo27sUk0Hl6HH0nH5pUEAgusVLEW/E/5Jr+nYp4CXzd7hNMjNn2pTn8M298+w4MZGjn710f0OzV3+irMgg+rc4Mo5jIdP3gIIaseUpXcL1gTZjcMaMYHOheqPt1HzO2rOZ+UrIr5isj/5OjJaDJ9kS1S+8onhYBKXPazvEisC+sFYA+BLH64+pDwhguhBo3NhlY5NBPqlY9N4tHfCE31m/CK9XOOXFfOlX4kj72J3F/p7mM0Rpsf818Gq1YkuT6Vgza91zwUwC5Dew+1tDRVBes6gwUbvQjWw8cQvEBYlj4Z3Omna0ktTlJn6MYDF1l4zGAqzfRhmFjDK4PKblNXvRMvE5IorcSDORN1+VlHxKK0+q19ZNipdp1VqesnlPxKbpHfcqfaQ4l8Ux3RBRpJ8hrtm6nYyJeW6Rx7fX0z7xXeCf2k+KjHeB/yBfPbAqLnIvuZwFLz44Ig3vL4PQgkyCfzI7w1w1GBR07wMucc1Q7tYJt4seTbjdYL+Pwo191NQudFE+n5Tth0lw0Mv/sA/1rF7hjRI5RFOzl7GPCPhaAIGECfGRVMqushXMpnfVWNnU5lBrbpHibcRKqXx+vplZru3NhaUTpbkUfKWZVfIfaT+QkHjx974O3YK4uIeAjdoCvxar4PtX98kNx+5bKtlGGKM8wFmKukYa9mSLEys4Qmge+fdyc8pTpd0CXHltpfedlBiO2FyCbx8WuGRdd8RfOjSApVtpJNT1Mmfm8gt6gQ73/Ey4W/xELbt3vDJ+duLfS93Zot7e4MvbCzBbZ3RZwdQs4iC3Mk54+YGQAbSfArjoTZZizZYktGtzqHjEYShV7OEptzKcfMJSBhAjoGLLKjb9jdEXYUtS3exiNY2/Ag6jy/oookM43wF66mE+XcMPOB6UcZ/MjVQNU5jUzzz4dvO/Nvw/uJSe0YaRydHFm3FyRDFr5oAavOVX3HzjxXjv/srspTgUMSJD18Y45yiazyOpwJU0KmqyEPLip0hnfpajn2c3Qg/tIVsNXsYVimzQBCQ2/x7j05ku/Dr4uHupmCj9PZ9p2nG228wGaMfLEhqBPt5fASJDsZv85mw2jaXdPnakGKh6Y4Qll4lIsLsXB3ZqMivt5ekDm+xBk7lhxzHz0S5gjHrY/IOtrXNoWPHMjGRhqWXFxyNcKRmqVcubDGJ3huXIJzlSik/LGC95rUQ8L43RrtZV6Hu562WuNY3AnpzfaenoWvLImuakGNkKRKjxjqjzfwDcL2galEelGmSBGm104lAWvQjnsHIATsFsF3vJZHO5xh1hWFgvS3tHfC0ihJhejq67O/KdNsUhmxRvn2JI4SpbajiRPU/wgadIvuW2bX1RXrQJIZ0ST0DWYXn3Tr2n0tiumPaOhwe3AfD+X5dWd/5trPIEInm26UCxjLynlmRhq+8ki/hCJDkEaxq4PUoS4kOvKPzqQcSZYlxCaH2vyCgGuiLr4t30ZPZ+Los9Pc0Uo1U9rD1t8PH5slFjuTJtKT6rtkZgzNh6kyTYcRdmI2YLR9f+iVi+AZKOlQtSs+rKsMs4S3TFwCVHtkqayfuVqwC5zIZK7c7FKsgL+PsxSnhTGmD3b0gRDbyofv5IagWgPugXT55VoJ82l8LdmA3/tqIz3HwLNtGu8ns0Sz+V6j11jsvjHqDf1zKer4P3/G4IliiWd//NQH2u2HFzX5JLIhLiDl53f5lK0DKCKqZda2ikVYEgO7dGkH5pAkOGvr6uCLMmhS0Ojx+cO3yvTEq+6RPVbGKoQuh0DIHFKGQ8V1UCPMPuOP9oiZbVw8FN6v55/CmTnRBzATaPtWoGGEObdoLurTIN3IrLv8Z236x7L5gPQsRauZbD8igZ2ol0VyZ2IKuAYs97PleNaJHB3b8A+nEW1Pod3A6YxyDARMRtxADoyJB4BB61X5m59Xb6t7f2W5aCJ8pLWSq5+WgeHFBEHUFEiT5hFHFdp5EmISEC4Mh9ygMBYm1HlMNeH+1XDHHdUOTYBVnP0tPtJFw2fHc1iPNGq5OxO+AuQzFWhwEnLHxwhO1rImxvvs0VjJgVspx804C+5vi/2zGeqDcrg8xWkcf/XQveviY6GxXVmV3XjYtw9/ks6A73qjyYhzXETUc11Iw28gFygyLw8tJLRHooxukOSNisWPvn2HmPEXZSC9HgtTxi/6ivabjLaB5GN/fAKHU9hnL6MaXwUJKunHeB+cPRnfn3qtcwWCWPlwUScWs7/tu+NKAm5LK9GVpsi4l1rjPaZ3d58oxTYAR4XJQHRtLgVFP1grLnrV0vFMDBLE9ObOlA/P3cD+X36dDnh5WaQFKfhUG499IDVjXsW0cEEEQjIGg/YCRB2+dU0eKkX2l0tup/EMn5hZ/hfjzRVVv/kGXkBw2ulukf7SpQWSUK177P8koHBDEwn0/30Yxw2gganDx+s5N1Re96r75QVx9gUICCn9EyUV1LLZoMnMAhBllHrJ7dEepP9jY4ENNVSM10Hd9JbKJat4oSXUesJpOvpUfX7JHCy/jMuTXIzdejusqqomp8vX15CQmN5w08UhoeGJ0IDUtsF29vNcG4JUB/Fj6cgVfWHUvuwN7OJbI1cZ8nb3lgfyHN1+PhafYAE3g/02C+KyCTuZkHTtVmXIdIw3DbjI0/cNe21okZQxHAP7WEAn3u9TWDC2+dnSwdQryaBKik/T99heGmo1WczPfifsDTTvFWE5264gcva2b1T5D4XBnqKb9hrkBQWVuLBXUOy0/zi/ch/XzthSVtTP4lYXwkh18Q3z9EbrZRUI/J1knqM74swSwVVhZSwmi7IzSs7aSGYoO7BisSU5seHVTcea8Nl4n7R0B8PtaQ3WdRN/CBnaPc2S06EHHSYZwTbrm+fFMwksSxXzbfKYNpp5R89sqEVm2HF6XefDB7KcXrPSw8CZaDZZ0nKR7eqEa5c2n8n+P/NuYrnnhayXV4UZNDaDFZdasXal3NxqRnulo7Lmm7mCgXOi9l8Nv/vk45FT9YSpZruJVp+Q5SKZYxqKJSWOos8fnEtTAtDLUuWQrv/D0ecnN2kYUtOKoqJ8htvC66OEfxP5Gn5o5HUMf9h8FbmjHjUWnFuvvuczeSS5pndZ71Az6Q8DpsN1qjXN25iZUbUZTH+AMZd/2umE7upj6+QI6jwkVgk/mul49UBSZ5BYwznmqyaHiUiVMP1pNeuIA34MZaATscMfqXIEE1eD2ONx6FBlptOd7+7dvdxfjIpEFBUM+oklX/oPnQtbabujHFUgAOMv3aDhDos5iidlDAKJUMb5flLFuWTQfay+C7z5VHgZmAazsecKxGBpxrOnM8zzW4QkNstA8F5oxqUd6J7BYJHqRepp9NwzBEiehk7O7+PpxW/bQI+LmoR6zXglcBRyRslxbyNNlbjZ9wwGYMwL76Hv0AqTYATbzXp01zPwiARIOetqgofnwEHBnEyjvRPYKMTSVuauhdvnZ+BzwjZoJCqEiqCkbgpa45zlofui6Iy4/pRKeUDehYbA5e/s+c2lUVtF98d+OnJagsflyaxA++o5qSoQ+dz+8zM3b7ofWjtK4acRw8HefSmTZQLJ/lleICZLiVXo9jfKCdCVBsASETf9NOCOkfCCtmP3cU9qYoq/QpEArz6X0iG4gT9AaKbx87bot/hw4Z/eeITxpKDVbV9zy8JZhOUwVMuEIroqm9KS3F5+tDUNKTQwGEi+2rvv4TaBo/xBsjeo87TjbfLh7ziwkTRNRstNTGdDsDnLf2BQaX7vRlTp1O9dtHX744pXpMNepnNy8qN6xVq4Ogf8FzmMnZ6Emd/q+0reXraW6ngtQDjAUy983D1kMlgtXElHnh7Ws1v1DmUwJYIfdYyBeTbpJ7TlDcr9D4AJ30VYc5P27NscvpwtPOnvF5mwo1qIzf48Jqx4g1aW7EU6eTJzl/FELMn5HRZyUaohlKBOZKngmoyJ/nuwWXm6pIRpnlTtdCoUMRiyxD8Fenz+rP9UIa2992iGKC1c8YfD/94/8pmC9VioOnyYNCXzbznyS3cAtQkNbLvag42mSG7zhmmjmsvZx7vZRVgp03N1K5mx3SkS7thfhz8HiS9Z2h5W1ntqUU5eCa9FbRR+gA7REBSfajXySPulJES0c7fmu3Veo/lDY8/cstAq1IlCV6J9ScLPB5ugbw1z2FcI4c/8CojVRJ7cANiAYMrSG7CxziPRAWerFnB+JGQbap5nMd5bK9B/H9Uon/wQR9lDGeTKmszTUdi2Bnf5JpwmV3tjSfe4qjyHL8Pkrje8DCYV2mr3pN0mJyPxHklO/YqRL/0+4rptxlOO/92xyzXQpm5j+o64L0rRgXrBGwGqPPRtPbNfs9bJlL3k8Lwf72FbZ/lwWNMcv6ZTUuDUaWgMhPHFsbYL071Y8/dV/e4XSR/vi91WZ+wkPExgyiHagaJdGIVHK2YquK731GZT2z/CDo4kyp0s3uB6vIG0SNPUCNFdlvFhpJ3Fr7nkDXKR3SdAc1CJE8v0QniTKPPGvWo0HeCHnLj1zyqkyr1kVJ4Tc3pFnCuaorQXoTJ3jpThsVPRnLzCFtlXmE+kDkngr1NVaYvI6ntOkseB9XGObZTqI23rU6ujA1k/+bbTGHgnb9+bY2qu3yctlTfk6NoE/cGHAI7AJ1XISCtkGwEOdpcHHFV8rL7cocpyJAJ3Bg7+KBTc2KaRt9BDdtCeWc1fFRQLCIPHNmIXLDIXtqckHIKkydpG+jtry0ihvl7MZGFFZIcntUlgVjdrt7oGdc5afmGfv0mSOfxLbCbDSN5l04OPnQLtZzJzybFDCS1y3bTEW5ViYo6QggMqqCxs5KyeOp6LyOfmZac+Rh1G1K1OXY7GSfTVFypVBJGmndCM9H96emmcHOAf9FWL9wKI0dG+KW9cXHjQ3M7O/hs84eiy2qCkPFPHT+6JU5ImNeNQHg7WWeWVb51UiISGVwVd1yQUtFV182pP/GKvX1SmvIJELx97qaYawH5ztrl2ZvbXb2jVbLfSmCpO3q0ut9wMTNdi1B8ggcLKz9uOeCxodKeqgpxPxvzmiLmg4UqOKdOiVWB4yLAr0slM82cPv2qP/dNXdZHZ0Pjys6FVrMxmZD/7vcA2kNFVdXtvDtDYjYqfIaei2cgU4GzLMLA3atAinDvkpQ4Ub7ep35cM8+KlFxn/zS5fryF1LiU+eBnMdav0HlXcxF9La1OmchvyZh55CZ0kOfRsFm65Z+pms8gd9P0UTYHFZbqf+XlIjTafd23/dw1SNbrC6ZnHCXbaItlDZPg/EnCi4dcPumcDTM2BWYCy3tHySeEpD3xgoTnTGeDhz5B1Jv8V0LSXzLCuZNi+HR3NOFLYFv/LmdmPW18nOOVYmPP19bl60S8X1Aripy2Nn022woQrKernsZ0sIr0PGmoa0oDNXbuodhRWcMcTrviZKphUsP6a+SrFT3ezFXiTQBRyAVD5skx27PXWnnf6qBWk+qc3F3H8BUOKryq9aNXEceCuAG1loHA0w4zaduRMO8PRXLoi8TRlSOnAJpFW2QrINfgOMjb9S/nxA7fnXfb01XVEzuFFkK5CWnj5Mf0ZvZkLVvPl9cbYce+fBIGF2sqTL6T9mHccvAjEBkoITgnVOjTBM2Gyf6tPhLTgi8V7eYLn2y8yR0qKUSMFOfKiUJqUcipaKcQxEpeGavr4DZhv7GFzpeOfRWd9SSNqg+dIWSoWJd8RC+cRnZbZux8aujBKDH7XixAJSPl5xfTZL3G0qV60Jn9wcjMXNlknbDnB4WDNPeKaTi/6Z0itd9wGh1Vs8PQrfwJfwOWc2UIoqYT0Ej7nQye9af8qatUzG+1utSqF5zPbmWc0tThdSmY7b+Ib1INQnLlUko2KY/OEDjhxIY0D81n0MJNWe4rTf3lTVS9PO8TofqW/kBwuz5vQQMUgWcgmpbfAzzn6PXfUjAM8B9XYcbODpLAEh6hKHZGoDf8L38DawB3zSoD/GlEmCiktaodwK3/79jFnoHT8NefkYEbTY6A+mivlygwd5gKQhxOvdEGQznuXymVPwrSDB6u7LTayQSzcpF5YigP/hlMPj7FR5uMflL0fioHWk7f7e+Z2IxUWZ/Z2DWn4gJm7SzWzRT3FoR7wiC2m7u3uzmW5hBBvS2l2FwqFFyHYVMsrcQ4aGGG1kVnFovPIvlMjdvqH8ESqhD3JCfrjK3bDUZFwW18PAU/5DpH6eebb2mBWm6h3PoD2HhWYKjkZGmPpVLcOOHDzjCN6lu7PWKP2y8sIX6BWKq6SDP6hwe1wolyvHk3RVs13Juyo63+FE81tO+JqThN2R+YkDAax3Q9vOy+2vntKsB3kbK0B6LIt58z2K3ZFgpJ5jyVupc9/BjNdJAWlM8Wuo7JBTUFw2lcrJ90LGLJndQtnhvUYPDxrMQrR4b46hx8K2cARBzwFBkfAoNCXEnuZDyqVFi5sD8avtpZHcrRTxbjdZRiYranygB6Dk/T/RJKdCW14Y0Q4gOsfp8mIg7sE0u3wQcuR3iO2Xx18ZmzVGnH71G61pb6/mIFyjw+l/83Xb5Ja1SaqOSd0lFccjlvEL853QvtAIjfuwV5o4pVwYJsoAGGe+owu3QaNr9QWNLToe5DDU6GUb/qHrFyvvZNsEiwm0I6ZN4YE5MoQfPUBVlFgWKMWQNcC6E5Qy1wRpLckTX6EYYqKlz9rMf9vW2jY4GUPgtOKbYzWnr6OPwN/tLL9svb3Hf9Iu40zwK5NcDv0FMhfIUQ0hCzJgD+eb363cRQqwm3aneW/8UaXMqR1W+4/n9xW5/uaRAQ82LQjWym+aDdHHU+LfEyqi5dFovvfPvpncStNwLXxNzWGzeY513OK9R705JA7KGOltWpziU9kGgxjztS7P0hl5LJxwdPvJ/QeLwrC5oKQf5eXSilny7/iVVcPl+qMcXCK7Obk9R4Hsldk7Qr1TGbz7i4GGQd5YdyrXnuO73CH/gMPuv7r61MqKyJLRTMeKgZUKlDD7Mc9OjYLdb9g12IpvAZm70SdUHJ0c63y1Cy/zKf448REHnI4aok2Rq8dgh+MRqE09RHDcNANh91tXXwEtY3r2HEvHrRc4yYmNsbnJ5z/UETppCNK6sQ+QUjHzwsk/DlRLQIr4y1X+vDlRCueVr8ZqWBVxRglIQPV+YLC+IuRm3FP1RsHbKLpTkK80G8UNw4RGH8Cq+DcFX7fBzCZnbm+Eb+13CMxXS7js7RlbjlEtycMrMoUF1WS36N8/L87f5Tsbl196yGCMyapD8537R9VfDPUviJK9AdbEGuFt3cEEBsQr3PPahWRXFAHg7cxZiA7lIXdDzpPaahyekrs/8K7tfQRIq+42Xu80KS5yexpVzOshz8JCfHKP8NJ9xIc9fNQqsii74hVJoIGfsD1Hu1FAv7kBQUhWCrs5v4ItjrZY1VPOxRLqC/WN6MKXFocVYLUweSr9vR8HcwJkb4e5RwTTcqSXdL9GyPJDx1vSHoxbpiqnX31fU/nwomgdb9wcBcZwExEME5XXjDhArIVLa8yzO8NRySqsnWl4rNHSb10shzz2f1TvYpvUallpk0A+N3CGMUwgS8S2XMdQfiU/VqYjb8hHMq5lzokutc47sBVj5in1HlNhDaBigceggNawn4mf8Fr0bDvr6dFhu8R6c5QWk9bfIa2umOj9Q1IG18mcnZ87b1hgyT7ku+6PNIhln32LZyktsSACqILbITne3EHvVIMTIr3INeROWrA87sfYzF7JBpLKSN1nU/WmDGeCBK1j2bbG2S6106pF+Rc2Bg67br8UCNz4nil/TMkjelk7TogN2RhEMQu8gzZZIEUrRfUjdm90kKcVzWYzX+YkhPw4lL580YWjc8c8Qh2TUOlpIjzgNHRRDPxbhNaH5Pdv9XoSM5N0cOkjwWuItBz/XuHK7k0XbQxrTGFntjru8oMUGdYwrm0iaLVXXaCP4M/jH3KQMGJQXDazgEmkgNaIlnkzJLS+Ld5+dH7LZU6uoyqLphCRHQBi6WKof2ET+01eNRR9i8E3QFrrcN1pQePL7MJ9azX53ZUoQQCvPiKds0zqGYKjh9qWP6L/y5rcrArrsbcA3ckRQ/b7vWcLS0KDkjtoImsYxZ/v/EOS7PtIlkBht3O/QYPws4/V4fgo8Yd1OE6s67Fg6+PgW8Q0ffnRp8dx8cTrm/JbNxC/z8q/vY/69QV9xamXq+6z9Z472y602XA5Vwgqj/agLYnOUZug9I9Xfo2H5RglywLn/fHNCay/Yvduz1QsiRRyudMFrP0aIKKm0gzmX8N/XEYvKt6UBgpTrlEJmL6eBhcF4Zgfg5XRImCWFlnXVGCHaX35+NwPYClQVZE7GhxUWMDc5KNqKA4OQddRpA5E5GDYqCBSvnJBlXtEk0bpS2e2f2gdu7hh/FW9fm5aikhRKUBpTc1L71TeUfXK/OuJNz+bNNexbD/LlQ8jWbCPdfWc3H9sMFOZOqrbMQ+OFqwGMBajLWk5GsvlCMwI67KVi/O6yocKWABxa4PRWyy4Zv4sZG6gcXNOQPlv4EhxccZIptTPeGoziTOWFGFXZxrACjPr/Gvwqg+BPh/EghCDHEoFUWJWAyxcoWPebDAFARe01Qpw1G81uNn/0+H3saAZvEF5YqZCSj0ZMhCf8CcIjZzTOlvoMJeU8Rfbca/+NnYd27cON0TbezI6s4pVX5t+mfMbegYKgsl9saftVsa1hAUCpDT0mCy/60S9SFB1ClSzYx5aoubncYRVZejEEJwWlK5WkngHCYDrYluU9RmJCLq4EykWrzvyFjH3lz8ElJfMw7LHz5fiis7QXqgMFd6v0zOP7qVPcL3N9Tn4UlPKoHRSvlN0/EZTRx5LXVLYghFOYZ9SN9wvZdB8/TUNFCj9eEv5yIjxVXMMxGL5pPuolqtetNHHY9r30mMYew8ROyUDJ11msMgkbPG4Gf/5g4kDu2igiM0DrFT15+CCais7HO3MFJEUnem+FufhoQmfOPHEdRJtBddO8GoXFbp5WL+7HDm10J0MGlDofZbFoB3hq13x9sH/Ymcr4JRPds/IvaLEccpY7DZgKR8uNcG7yC4uOVaKq6NQyZhsnD98/i4Pa5C3vBAO9ob9BGPIfF946qjuNYUPwP7xDnhQHRe7V4cGSJKzwvdY8vl8Hngf2dGqSR6Wh4m81By74ngFvQgHM4pNLbiQYNibBkvddvDYscpLolCv2HmonM2YxWwh1DH1xLyCJZq5IKt6Bz+hKtJoa1uwztFu6ZintRIKZTfvDKmgN8qcP9IdIdGlV/KkyFoCwg2N9VCS824LL4SS6XGAa3U/4iBdo97aHvsV5HU83zwonY6e26CcxnJykYrHjO3E9HwRgTbkyndiSnW/0XEJDbR8g+TkIUF++oc0tKPK54VxydqTZycDYHBK/wILKUvEuawjawWCukFIE0v8b6tKR1N/m0258l8dK2xJqtdjy40GXuJ+h9PfGRjK8s197LSpmPDnPq4xASgU34KDKXaBFFMNXzwi9SOhTZerCa+AH5NsEsJOX9wgsRNSgYNoS5XOjgTj06t4sq73PNOjvrviiQIvxxQ3bgGpZ9QLvrDv0Lggp9/oj8wdW7qHSMG2ARzzsp8l1MdU05+oizg5sNyafhney1Mf/PtvNb9ybmtANoxV/S3nvDYw5cN7yroRxm73HRpYmVd/XBm/hyZWYARSEAVXs8AoIu2T48F42dHfe7axlHsSyZ6JiS5Ohx4olRcKmuGKBAmJEVfhr6hCrna6jLbIFwrWosG3wbVA/6/5eukwGW0PwKuH66jXScfBElMs7mtkywkrDzYLRW/0RRBUYlCLrtrUBscsrioND510cOA7SsR6rzBlJAYDExR25XgzmjY5IGnaq5og8+E/Sc2eh5wY8IAUW+aCEYhukjeBlkvMSlzazgpsy1XVyBngK828erPdu+rhkDaBuzBeMIIWq+wGjOgGzpv90uzHDJ5AqtLrc6KxNsV1WDtKelK+c6IW/yaf0q754uCju8EwyHvrZGB8KsObT2lKCVfjzznNRqPO8VDjSRGKvUjXX6HHoSI4/o0jg57cnbFIvF+mMBXoaLGUaWQQFXuPYh6NXMbHLwIfRpRv9hh9lNceKa8ab5xnhybx3zhk1R553FIH85hNlHmFbunXUnARa7noMphi7hBYzFqWyJ/5yZ+XYUCOge7dHkH6zVWkPPLNGYn/pWM+U8Bdn3XpIfqaETa7D1p5g6x6Ff5CgUvAsW4g0ckfaLR9RzI4G6rDNEXRGv+z6mDwUIoynefMVhkvIiJJc03XN5EZATNIPQxk7o8sTw+NQIenI//pJ3oZ+uKSQYb/0u0fa9Ub1VWkFMnxFgrmuV992YAfni5HcQce4/52lhRWfJCmf9H1CqByVZATBfmFjeqX9ARikGxqvJQRxWLMjNMj9rKZSK8Ca6a87x5wNFnEkgWANKJtfcrd0vfZ6Y3KxIa2lfGf54e6aJtjpTNDWVn0thOCrSh53naxJixUr4U1dc2TuFzOwOWeh35zDJGh2DSao2dJvgkZCruJOtSNY8IKo4ZH3gM7lyVd8puYx/52tkvzdHhK5zGvN9aB+SOrbONYGIIY9JAE5zSu+XdjKU2WOhL4ltCDNNPR/okWRZEwJ2aY2SvwUL6HJrpU+u/YEJIRYX33QnLTkB06XoLnLLWMxBtH+m3vNm6IpoYk/OPZXap4Ih5ynClsyaUnlIpjQLyI/lFGzpe94lzySSDG1pvyhb3J9B7YFWGQg15Vl+uRQYekgK8aearOY3E3TEWWrUPCNvbcXm2+fFL+2TWIpr1dtsEtu6+lfts+XA3nyPk5Ck79eBBQJMcDvDUgOzqHdDF3kKGpShe5/4Cs6YSzZnG+9ssGj/1fAwFqN1vGvQNOC5eaaoCCruVoiZJeJhvxUJswRhHpLDdMK+hI4PBcJ4olcEAlrI5vLPLa7pBxWgmHORpS7hrVCL8bN41GhNmDlWXWv76AamCzuY3bGY4GpXCpWtiw5KeGZw5A9wyJB9WY7vfy21hrjinave2qgAxYIsAXg3FiTGzX29N4QdDHjhcMqLzdmkpByXuEvTJaxLXTdUqepObCyIoe5vaSQb/8LZqEIE/omzMF3uGkAYl0p0XlCJHixydn2kGitPIVBiKIcGwWZAJwRs8cQB0X3A4HjosKypyidMnScCYmt21aUinpBEIewJVR8CFCaPGZl2y65I/nstTyRhKP9zxFSmevX4/rXJ4wmixzCmrCmypW75aPjC8fQOe89WEJ4Jw2TawZ3IEPE9BGrxBsM439OXiJB4AaCtXTRnSOV2t5B+NOPxZqKUyJv0sISHh8dCfy3SV3P80KaLnJJ22VhVi1froQ594IU8hpzvTjr9ZsS9m+RSAYyXRIyLFnV8uW5GKztIgkacgEsoCJWLHOyEE+LrEMTA8PbrsxMzqCu/pklIoU8/PUsoqPBMIUfreZwW7L0ye99XsauCc4mL2vjv8OJGZ/SVIAWgss1i96tZkjZ6bQrd979zuRyib30b6SA1MMXiawFMRmTWWm451BSiJA7J3q4v44OqHlvVRvuUFr1zuuc0I3bAI4R+RQG1pKsLTI0Pblvh2d1CEeN+WnBW2sjSafEICUCEQlwN5Zb3m9CtyyZUmMXvPk89iltL8V2DPrWzgsS5kOAFBQXO0qlGQftdQ7ldicmW8nZ+CwizgtSOGyJBGEiq0OaHMZDm7AqQgZaOYzXVdxgLlSGou0jDfK5wSLh2ILzL9BwdCFOSVET9nFweE7NeYskgmtoygeVv6tWxpX0EnhKrs0U8pt2Km33X24tuIHBaESsqPlYJKdMjTl7gL8DZ4hzIa0tlMcZdbDz6OoMaBdP4gJuYs3AAVrLZ4VAnz5FankQcwu4lnre6oHq62w6zQWe4IN/X/qovRgUQvABm0FEhBMzM/6tJbfEYJkKr8Gwg/aeOw64T2SEHfibj4PXMkdjDKGw5AxcLpQk8O23QX7JXBD42LjJMArhpgKl70kGR2+lr00wsWVX2g3TEK+h7Ht1a2l7h+evOLjZ3wTR+7NQi87/RjZlb6rctlN5x9qyjbR5ZicTDXAN3LiQrY1l2OQPIZCEmRlveYTHfFLz67fdATBXHIxRZhbE9JGZrmsb//ok2GjhhGBMw3MqkYQ6ei37USuwFZ9hajx3vDtb7L0DyG/ozqf6tuXWwbDhEOeG1yu1XnUnhfMCPAyf5K9iak3xaYKFMNP21x5f8SKxM5P43EF/mHViduGI2+XnXRjb0nstiAsoCkEJUyTCmFVYcp+Zrt/tKidL3y7X5YE9UwdRDE4FATId6kSNe13ewcE5pIEYc+k38fLwgTCTJlwZChVXoah+nCENj8MFnZVD7Bxfnr01seHqd89TxaWkyvzLQorB+PTHflOvJ3GEvPhfChCY6uAcn59iseOHzWCH8EFFiagIRlfxwa6SDMTeYHFPU6UcGeCR3CwKPa4cQYHooD74hHfjeNJ+OLebgOqJliDkeoYGkGgLx7r/W/v+MYGnCV6kOvwuu6HcsfovN8gQbFeXsWI8vJbemMfVHGr1yaN0kkfzuRL3oND2K7vMCZ8ZJ74MNuJ4JiI3wi0AAAAADSoWAdwf2ZVYdmSLSBCXIHFghkzbqY07Rsj7JbYxgsx3A14P7ujgiSefh6nsnsmBDU6O9P5gpXtU/v/HJGpvV1Ur1NHyzbx3S+POskCzlcysBOIG+2UFWEWWCQn6In302HDUsxAqqO2vTqddHfMPvQQ9R7yx8wCRiah2jzDLS0pOxGCG7ulCXra6mo6vmYy1aVX+GmTmPgqX18cFszZv0UQpvXWZR90xrwU9OGKOYFE13Yf839N3kEqnkgVfvs1a+gkC26/IZ41m/GJQyhRdz4X1zkeMTF/CgVW0axKiAx0ySH6RSY4T1YCXJrQr5OWBZXgqOFk3scMqOFz8hQkU2e5OXzSXlSzkx2kk7L4nr8QXPdBO7I4YFjpjI8ju63G5u7CiOw1nGzBGl7QDb/rGQ7PuNER7wmfxlSCQYdlyyQU6mpWJ5zGPUOqwNEhfCsad2OuJETbxdMfCXmUuOGAyDwbq1l+ksomRIwHZIbrY+njC4nDVfZR2K4SL1EYbofPtua5U24ETQeOmL2TfyEF2U4dVObUPkgee5llDOrxaooJserjy46+JnDhdQlsE0orQmKEeTuVQYDsUcTHbto+VWLVFieFXuRF8Q4rIwK9PYa2nxd1dHKvUNc1YkOjtFy9tHJrQiWYGrS+TabYbcgs49h7cNrYhnmRsrczjXhqTYVgCkkHFpViSp2Htm4h2eVfZv4xTHXpSWZEptSIRZXifvgP5GmtWVtclT3AVkhlIUYqs9RDERoenkFXcHr60wlHl7XNY82FdGQBZ55xxNllCZGqvsm5kaWksC0IPc5+oI8JFK73kaZjV9eiwHWbyOZ/PzwFu1D5Q1MJcclysSrPq1eeFlwGTcD3TeWSuSDTthWmooGyQw0G3M57ZsxBO3IQxF41hlf+9Z2b7P77lKxARlLficamR40I0oe5YrvKa6/reOnGLd56l1PcZvK5E6j4wbVrHzFFzthYPb1n6Amk8XUB/q5LRQJf6ZY5msT8tSB0cVhu3nMkBmJ9NLsls9AO2tG5bpwbd0FzJCa372tvX6Uuwct2UQyU96CALZUQ1w2CVHQd+eztaJDyW4efZmpl3CjrGjUlbI+TI6KaqvwphHVbzu1JEq2OLovDGrlmIsisCgCqvuQ9pco9b6I9e3epJ+oIhFkfyv+vf6jlONHLVm4kgVofI28xp4ofeOM9WLGEKTS/vWZvFGOvlH5QnUVZ4cs/Nr7OsTcQbPwVbfJtzXmyrqCDa1IthIza8ajmd9unkd2+TmDDGqN7L2KvEa6bscjTVTj+cMugNRFomCsIv1zCx060WrcVan7D6BxgFAMyZB5Gvgu0Al0Aqb3fSyH+zfk6A0pnCodkbdnd5vjt9LoOaRtptGhal8fTgP/gipEpabQPRcdjFxxY9wCL9Vmlfx7Uwyf/Lu9jrREN1iTu0AEDaWWt+rl3U5UoQ76H3Y5d3Zrhn8xTQx/6bdEyaNb7eUFJkw6uQvla6HSLj7VEnDTwKth3EKq518To8LR6rWlYX8CuEgPRBh4UH3ijbZaJFSody/xBOzCTSX92nasRyZo/w2QZ2lnx+upZbIVOUcR/rqOlZZQPXunrGVZpL05UBQdLdRse9GYzdIpq9biaednlGdwiKLv1rLXIB7Rtj+hdwXxr8Pfh9T/ScVEv8stsDO4SRWBnKDeNdcuBWlc7gN9jDW5Dm8XqhBCZT0Cx/GKZecaAYNh3+5xyBKlkqUMD9dpgQ8qVBj1TpUFvaBbJU4ck+R3XIqvoaCn1ZjpqZsQ30K2tY8zzTyzhiE7x7Eiwk3PLdlyTehk9G/o7QsdEC0+zYq/8XTu1sIJGHda7BpMC3uP/GHfNjFqttAfuVPp2X4kAmTeJnfwPCIOVcE1sSqQsqKo+EAO6Omllh3yrrZ/H/+VecGmvSRMKyMCHpv2WbgC+zLuRubn8uCD6Zggh1wp5qlqk8Z+0bYR6Jk8xOasKHnFYEaKSwfuHxA06gVhS/n4L60JyrELjJk6pmqHzuo6OU0wwUFEW0NKciIurIHmApFKi0a53IvFYXVsHM4AEitkdhvP9EKFzyie8F7RtiSHnm3aHAzFZjtEetWIilRF4GJcW5fQIV6SzhJbdVBGsgWgmvUCDogJ2gHWxHk4ylgmOgetB8aMDTyqVHkS6opzJGZRcrYTil/JGQHrKWn0B2h/aUO3Nb+SmvH0SkfZmcsSUm2NUvVdVzKvL70IZafUkgspzFF19l+DmkdcWg1GaQHRS/gv5oWcHzWWOJZXisdWNuxws7Kej7PjKn2xmQv5i+t/3rbewwQajOgIc+OtQLS3EmygNEgYUZZg6svuJQLGyOw10iTlduk4eN9JCNbGyV4vGcJDxNBVM9Uld4hyNH1LLtkDLgAp54+IIIUrK98shC7+DwFZ/21fAHyxAo4+tqF9K4LsUtg0mqhbSpeL3Q3kajlElbqqTwPNSHfteMAXSEJf3Yw825C2yat4B2Ouai8QLv5rqAR9FG0xik0rppz9g0jYDZjX+SsuSztauMD+9Q7v1dTBBYP8662iKd/NsOFTi5b1lQ6pUscgeuUlMlbDCQo47IjUg+tJBX0jSv6sjfGIvaWEHxR/BHnSWSRceEGM61dnZceBnV7ZfBxfAhAKIaBDsuxkbc1HXXhHaN6oiKZSx8zB1tGJtaY+XuorMbcs4Yl837OXWTjPIjDfyNm/7bNhxj/1BDqaAsD6UrYNRN9HUimyVDZUI3xmdyAIVHPJAwgMZom1XlqNLWaUbkGaA7hMhbnEdyBhiFucTsN3HQDt2Okcg9mPX1GQEtSW7IPKonk7ccvsoIhuyHtYMpReFmL+QS/eSqSFgwTUVl1b8/oIqcRMW929ek4i/SoMK32uRf4MCfJW4GKlNmd05icrJ8LQFWzlxn8a2Grccu1vExUtdWsBl7LLMSae2wpDGpqOzuUltm6LEcsRnM4GLJ5NVMzmNOUMLOnfoM9f9vPZeei8tren44my4TbViwhqiMNchNDTT2Pd0KiHm/RrkQ1g0+QbD0JRyN5WNHZ5hagw3PMuhvzDC4DylFa+OxEEqRTUM1xu+8gMSSngj1Qc6lksXgcZfDkfRBBo2H8YKrrs9A+ph0OeMgJipfyRaAqgtKv2SyZuZkUVi9d2VIb1JxkPekY8CHDeBNPxCqHlTPPt3qIZBMKLNiteypljhlOWkKMYm4UMK9rhv/T/RFC1TkodVYzOipMhmlMY3D7bZSBl0BFgOewkPAKSrCbf5uI6N03DY1zRzA5d65CCuxZFr5ppilXERhUJAK5r9AmTBfhnFNMNK7NVxhxuHUpCKdqiC8fv60fYuK5WaV1RbMhLB1DbA6TDvN03/qEDaAurf/lgWJSdzLrpXJIqBtcGjIAC/BzeTqrkBPiGQhHQVWGCuGqpLq9G1+QalKb0wgzLGaV5FsxT4TZ0lHfh+g75ksLlFfDhjthOl3Gj2NWgxSIOYQGdtbfrXd8cMgrWFF9jlvMdWX3eiY48wivxcIIm3KSOwrdrMlw8FV6fXzYabuiAfPI4DjBvof4RU2HECcdxXoawisfYzNfFnX3L8PesPYOcCiPrGbqVkGBgQhgVyWVlMHVpZVVQNuddjOqsTY+cbFgs+u8W3ApkyYwfzOyR0Fo3oS22x7BZPXFcsAlO+27MI3SgsrLxugoBy8lPTxNYWb9Jdf3hXT55620DO4Ttip18pRjhFR/SFLbvWmj4qQUOiKI5WEfL9ci70lmkIOcxcWYBLQxOQotOMIUFt1Vr6Ib4Qw3wTEWl6E35hYgaQdsElvqrblmn/OLuHH5LBtmThnhPwx71/tbu2tqryL+litu9CcSFPhoE+cDWG68b1c2sovs61cYpl6jYbxn41I8OYwssFt6NuWNsyJGY0ztRcJIKkcLSwttPtt3jCqvbaeYCJ8j5VI9Ou2chnJK8CzRSDppQewjGwF7a2xwe2zM2Nwg2twcQiPjUX2NW9rylyzU+ZQ2eyISWy0HG5p9JiqMrQGVU9ZuOiA1xuhSSAKHYTXnUqze2YGsHCbR6tdQifxTWgjAVSCFAGz+H4lT/oJZfQYA7oF8bQqSQTQS5+AaRWrplLQbWMqS9zs1ukU3Qjmx5YyptksAvt5GKTuJPqdpz3josGz4pcCLXjiqd8BZnEuU+fCPQ5ZhrDvsgeo5fMwVW37INhZiYvnO9+aN1W/mHj6MtBp9pZUsa/btwUogXZTe3Y21lc0TsABwAwQQucmfQOGbl5JJ/wzaqexWnCfZGOOBuTMlDQ9Bo76tvPOrWD2XSH88wGdB4odNaX0DAT7apO3zRcy4WAmj78Zlvx5AzRrbNMuyakSUdb4M/+ai09ceTnJ9JkwHxoOqM83f96Xe276CL/Al/26xdBKANPhoB8MAN0NPjVBmhcmdi6lcnH99HYhY3VIZSjPqMG9nRO/CZ60ccS74FDbc3y4RgX8Op7CJTVgUx3g39jmGtuE8r3XAcSLhnMHP1SOUWO36w3vJJqw46iCeX+anInnmZR7jpovam3/0nFjlAb8/1b2zEq6mCv81ASw7brTLnLNQtmvbA3sEASQEfUKS+5b4pOUqFgR/tsP/UjZvx0m/9OaSAIGkHI/njGGJdq119334r4i+MEdrQr7JIdS4MsAjBAktzNfviEJm04oRkL7HGftP9EfBLEGi6f/S0KkABDututU31YxrxOqzHbmpw5IxH7mepkfhEaErQQTuZuxt1jOw1ao/ABxSIgXYVY0QiiMNcoX9aI41UgO28ipxQakpA/DmzpiUshN++0bdEHo9pcJ8+kmw+v6ZchguRWUzA92OcoqmwluJDiPPwiCz+MhY4aAkJKRWiu59AlU5KeMnxccdBB+r08qrM7dpxGoA+JHWqrKdtQ5vqqoKIsBlvDuqByZkcXtNX2FV68wMvqPR+HnprfOJgWgZREHdwDIKWuZ4EaS7LTminDJxCpExfWx4Ql0A93gAcWnP/joTrexjb0srgXW75ESdDpv4AJIVD/dpBi4KnQdMSURe6/Aj1ad8gttw4Nc53LabCSXHLgjfu3Q+De5yNIxIJw3w25dxWieaVa6rIa/4knzMXWvm9lYhfYP8iZRrr5qAYQOpHikwJe9N9xANaIKHakB61EYEOyQSBSR4aqn8B/sWr7IjCqh8LVeiDB+OeD5IeKi3GYgt6QGf2DvvKv10OZQ8pYAkdqVZT1auike5A8SSolzll+cKF7e2OOnjLSz8YTPDcFULgtoNX48x58ItWEbmnCHP6L/zo5mVKR0UK/7ygAooNSwKPG0pXPrqm8ExsrwcR53/yUDxQrds9gyhcP66XRxwGiMGg1ZYWeiQ29curpZfkx3NpBKbjm5FhPrus73Cw3R67niFSCAeAeOUGCVfdzMeORcnwPfz+natb65hZQpJQuAKIHYgI3G92hr8AzN/ckEsqN1sr1LsKDB6+CXrQUQ+BQP9GnEtwABKSvBp8BBEOjs0kOdPtblAO45amdwB4TQtY17+d7f3MgUU6Hx3JOKwklP3RGTkmclkTNgNKWbvCv5zi24h7NLxQh9XjLxF/Qdn7npBestZ4Nsjg1vq1331OzmDvF8d8eFJXfCsNCVW8tqewnSl6QLwZznvEWuoLeMBt3woqMSfpEX7ozaoswdPDXiB1hjPHNJjy+405sxWEUBKizs3oXDrq4OhxehBboLW5zSz+ohNUyGnDFJ/H2UZUKbU04RaeUQxBMlhzLz4cFERe9vCRgKOWD9dhVUgzXuY3EO7TFoBjS8Uf4pl6nJm4YlLJX4TEltDUqqX2mhgrDK7PfacL0+3psTnKokrsccGWUKFADF7q7/p0lYSmiNzNZB8bZj3gW8wqcS+0u6/ufBWyzdaNq5fOzC1zCZjnwnoiH7nI3PPAAw+6/BFnYr1GZnZtrExco5/nKzPubRYeisTER6zuK0byVpd31u3gXlF2HuskGKqFaY4g+5b6UurupgrOQNz/1kXZPOeK1KYTnwMd8QRBoCUWqssGGX+WHSy8T7kvGE89Do6O47l/DhYGDUAR+4K3D9gke+bo3GVpjJDJk753bOIOGUkAz8Fi3Rzky49Hdxu7BBquyciS5BlHeXViXl0RY58kAeATCqNEACfkfsqtK8juw1NG/Q4IhG5L4vb/w/zNPbcwLMVVD2LKQSRjdViNrQ90iHhf5zqo0Oc68MWhLugb/Kehfgx1N4nyV0Y5d8dKD5UR0mKcUe+JBobCuneOuZoCE2rgH4v5xTsbqKOmBfxmFKHKbsyvSzNh5jdHgziIMDGuFFAXQqHOrg9joUQjMA6eMTlo7/3Rshg/TmpdnAxb+NI2KAplWzzZOpCR79Qbh025+llFxRLStb0/wO0TGh29yJYOZrjqBJWQdRVWDcJ6ry51r0j07AJhlc9EYWF7MH8jCQErbiPyWlncQWevDJFeA8odLt/djluSByFFq+8KPdiavSPIC3V1qtgV/UPL78If7WydvmUMuxym4EA5v3Ef4TTe2Qsrp4YNHZhbNbWLnXHaSy3ibE49U2fjLaFobfywGAcCMu/irRqADPu/4TpCUr75/yBEJ/veemCgIZW7bIPKKephYTGGQwzHzXL4buMA6shFSXqsWQCeHo4Mn2S5v+HicLDGHSVMUUnw52Rl/stWNjUJ14hEDHompYhFFJHviG25A5rjgKaa9H7M7/bsuy1ghgEQ1H4cfD9ALMvXN96F/5blZCVQfXBOCgN2FXG+mzShosllRtNVmUMOiWZA3Ahf3u2gEv2MDpbNdLq9TCLYIz14/nD+prMNQDYcPl7C6doPIYR/IPTnj4vfS4V6WYys5tig77wp3Hlc2xXpQQcR7FSWNHa3fWRfJ3iZjVSlXThP+A82krExZpGzjjDX0f3bV+pmWg8ykyEY+WQBKUanO2wLL6U1EBnRV+mNitDP0iT8WSGgahXXobNoDMU7gTE9hoVGMlG4WgGlzJIVik2Wf6cyAP37+CKo8NGSbAqyRoqq5ShMri9pA6zbnx+I3EAFVzxiG3Yv7LSUklent8psTawe3cWbatzVOwjFUwaerf3eZkal5GftrWpvOzasSZpRrpxT+/i9T5mghTwOywvTkiFQfw8DCeLwzYfHlyl/VbI++qZgyBdh0atOZb5pbnDtFDz1Qv7KnuzD5yaObDhQNJBuIRtfDAVSPPYO04Z4Tqi52u9tI/zf5wxe0F4Bf8IWHVv7NjJEJdHLOytNq4Usy06PvumLGcHMbv8tAZ38El8Fmp9HZH6M11aCOglt3ba6+W286x5f3Fp8Z7lxFhfWSsdcvxt6HxCKril46kkEAAvkGssvGhFqrGiVEa6NS3Dl5Xq4Ne2fuPc3GKTuEP48sQmaDy2iIqbHolgHnCXbicE2cPyU7TryhcoKW6W4ZR7cZiWuwSBiHO+DuRQaBrvt5TS5USleJmCVj7LksTggNCJvNx7ci/8BraCk3Mv0xbwr51Xzeo88wXH9w3DHBpmGlCOWsstghqK41OyZ0YSe5Pum7ClxtZf/yY6/wm3xWWKnMTFa13/QjGU/mGnnyG6PBkAfQRxZHH8BH1ecVkjNk/y+vNNyzNVIKrrRKyiLyXjtptC3b6SJ3lmwi7+qjxFrgt4OiC9YNRcuNMC843nA7tVNf0rvlxrZwjK6yVU8hz8nDo7KZDhGWjbLv+QMtooM+m9R6RsFshFIi/5YAAh0Vux0FVT8NTXOPyOMZhZF1eOalfb/5LjZIaMsAsMcJi06ae6soJLZScA/PS9NcDjqPNYSnVPGyqG+k/j7ThsaJb0MVBPj02TRIEMKii9WHSteEUWpi+jlIFA//hJ30scYfyKiAE+TAbtiHJ3nCoADTgAUZmOfFWtYNImEMASqg5VNkWwGlQ9nRyXqQEN3LZh6tqaGWJb6juIl9mGW/mFL6fmnTgGEAMAWSjAUL62xTOEOpino2lm4WlhRgkK/4d64Ikyc//hp2zWZ/1tCCG4GK2qHs3xaqVdZjFz3qRnHTzTPLB//J0oULgdi9ir+l30B/JploWrkCs42wZgYAF+nvThmXHoyww+Hc8Qg+GPIXRt9gziqu2kKwTyISmc9iDnDHI2RGpiew2LPYGLJEFzKIjbLYabBj9QhV11CLFpYyuigqsfPBsXovtkuaDS2+ML5XSxKphPao77VckZlY4B01XywjYsWcyEYUGQS2ru76Nv+gmWwRzI74baebNkuOfHKusILUIiMxqxaFqTDosfCPHk4qjAkjq3szPlhGF2CEobvRvBu1V0S+Y5/8hBgCchRArfM4lauI3nVNTA9P9OTic1pvvD3RvZjTwDwYDfoKo1yhmStzTaPZ/NnC1ma4kfxtq3Vb/fULY1ggp3edkGlkaOHSgss4VzVGRq/KiIIz7hzt6QiGc8dsDN6OCNFWNnX4Mxxf1fIn92s+fU5h1PU3i2PUWkNNS/qyx+TRA9Gf+3HFnkIgAdqscZf8FWsFAE07JaOOjDAa1jXZiD+/zDd8Te0SAW4wGo2lAbnRhgQPco8tiycTzSo5yXJtg12bYl4W4HWfo2Wn4jnjG1sMMlTvETTIhPSBr1x5H2dqUQqzIqZ/T3w8/gfuyaDXN2XSeye68aBi5fiiSzIA9iXyhPBHs6vstn/w4qKuXYEDPF/lUzHxdRmyzPO1pAhc0eU5EVD8/aAE/1iy08CrEy/p2uTkghtPNmp97kFx9yWL1o6oViARxvrcKV0K+meZIjx4w3O3+L7xb5Z5Ay+whIJrrasWasAE/jaHATHzRS4kJ8eUOAHIl/sMcJG04XXVQaX3AGI4VALHaMHjTLaZy4IJeRqB0AF4QonApsfv8FiKcWheTsstnNxMqeU9hQsedB3LEyqII+xCVQSPlexYtwlJDcPoJOzcTXY3WnYCT19eb8juOFJq92m/vyT3USDWiaBUQrtE1rt7i7fqBlBxcTQoMpqOGGWUfqK4ra3gXRWmXkfeJSsGtN6kBTQtjMDE+z7inXzoa3WSHSzKlwWmnWml0k0xFWdJy7Lw8jsSxKVJiSUE9EN+NQP3mFm3kTkOScp22WzUvraFbgNAgpHXo1xb/aAb/BLj0Sk27lPSkEBTsPKknYwXQ/gYolwD1OjxPEtoq0e59+ke9WNDAb7TnqYyhVxvLU1ufoUKfXPMT38qeKRKQlCPqqWjQdmQO5pn13BQlTydE4+nGH5ZLIhND8XsMLLDnLF06QIi9C12RS5qWkSXUMVhatyUhqqljWSjXOiB590aDJCC8MlVywLVN/vGgrQGT96aiOnhpjt4oG9xFixAIvaQLQBq796/ztW6vSp8mMpFS79puUzTQdhIHHlT67GMK+BJozXDag2g6D7Cu1EvCO0A9rh74sdoY3i1Y5NE2eErbf9Bi9onD/IjoTz05qmPNJaW4Nh9rKCKqPOJcdnatPAd848a9vL0IZb5wFx/sNdkB4TzskQVz0Y4xxgXsOYhPiSqf3kzL+eJZSIj0PUhR0OJK+rznRs0FoK5xll4ktTJH7pFtMC9zevMWDErBoxhtqDJYXt86KYqf97i5h07o7AAAAAAAAAAAAAAAAAAAAAAAAAAABFWElGugAAAEV4aWYAAElJKgAIAAAABgASAQMAAQAAAAEAAAAaAQUAAQAAAFYAAAAbAQUAAQAAAF4AAAAoAQMAAQAAAAIAAAATAgMAAQAAAAEAAABphwQAAQAAAGYAAAAAAAAASAAAAAEAAABIAAAAAQAAAAYAAJAHAAQAAAAwMjEwAZEHAAQAAAABAgMAAKAHAAQAAAAwMTAwAaADAAEAAAD//wAAAqAEAAEAAADQAgAAA6AEAAEAAAAcAgAAAAAAAA==;clipPath=inset(0.22% 0% 0% 0%);" vertex="1" parent="1">
          <mxGeometry x="120" y="-1104.67" width="500.67" height="374.67" as="geometry" />
        </mxCell>
      </root>
    </mxGraphModel>
  </diagram>
  <diagram name="Page-1" id="5XlxyWRKHpNtyt58VXQe">
    <mxGraphModel dx="872" dy="421" grid="1" gridSize="10" guides="1" tooltips="1" connect="1" arrows="1" fold="1" page="1" pageScale="1" pageWidth="827" pageHeight="1169" math="0" shadow="0">
      <root>
        <mxCell id="0" />
        <mxCell id="1" parent="0" />
        <mxCell id="SXsNi8TyJTCNs2isSIcM-1" value="Student Informaton System&amp;nbsp;" style="rounded=0;whiteSpace=wrap;html=1;" vertex="1" parent="1">
          <mxGeometry x="240" y="70" width="360" height="60" as="geometry" />
        </mxCell>
        <mxCell id="SXsNi8TyJTCNs2isSIcM-3" style="edgeStyle=orthogonalEdgeStyle;rounded=0;orthogonalLoop=1;jettySize=auto;html=1;" edge="1" parent="1" source="SXsNi8TyJTCNs2isSIcM-2">
          <mxGeometry relative="1" as="geometry">
            <mxPoint x="120" y="240" as="targetPoint" />
          </mxGeometry>
        </mxCell>
        <mxCell id="SXsNi8TyJTCNs2isSIcM-9" style="edgeStyle=orthogonalEdgeStyle;rounded=0;orthogonalLoop=1;jettySize=auto;html=1;" edge="1" parent="1" source="SXsNi8TyJTCNs2isSIcM-2">
          <mxGeometry relative="1" as="geometry">
            <mxPoint x="240" y="180" as="targetPoint" />
          </mxGeometry>
        </mxCell>
        <mxCell id="SXsNi8TyJTCNs2isSIcM-2" value="" style="rounded=0;whiteSpace=wrap;html=1;" vertex="1" parent="1">
          <mxGeometry x="50" y="160" width="140" height="40" as="geometry" />
        </mxCell>
        <mxCell id="SXsNi8TyJTCNs2isSIcM-7" style="edgeStyle=orthogonalEdgeStyle;rounded=0;orthogonalLoop=1;jettySize=auto;html=1;" edge="1" parent="1" source="SXsNi8TyJTCNs2isSIcM-4">
          <mxGeometry relative="1" as="geometry">
            <mxPoint x="120" y="350" as="targetPoint" />
          </mxGeometry>
        </mxCell>
        <mxCell id="SXsNi8TyJTCNs2isSIcM-4" value="" style="ellipse;whiteSpace=wrap;html=1;aspect=fixed;" vertex="1" parent="1">
          <mxGeometry x="85" y="240" width="70" height="70" as="geometry" />
        </mxCell>
        <mxCell id="SXsNi8TyJTCNs2isSIcM-8" value="" style="ellipse;whiteSpace=wrap;html=1;aspect=fixed;" vertex="1" parent="1">
          <mxGeometry x="87.5" y="350" width="65" height="65" as="geometry" />
        </mxCell>
        <mxCell id="SXsNi8TyJTCNs2isSIcM-10" value="" style="ellipse;whiteSpace=wrap;html=1;aspect=fixed;" vertex="1" parent="1">
          <mxGeometry x="240" y="155" width="50" height="50" as="geometry" />
        </mxCell>
        <mxCell id="SXsNi8TyJTCNs2isSIcM-12" style="edgeStyle=orthogonalEdgeStyle;rounded=0;orthogonalLoop=1;jettySize=auto;html=1;exitX=0.5;exitY=1;exitDx=0;exitDy=0;" edge="1" parent="1" source="SXsNi8TyJTCNs2isSIcM-10" target="SXsNi8TyJTCNs2isSIcM-10">
          <mxGeometry relative="1" as="geometry" />
        </mxCell>
        <mxCell id="SXsNi8TyJTCNs2isSIcM-13" value="" style="rounded=0;whiteSpace=wrap;html=1;" vertex="1" parent="1">
          <mxGeometry x="70" y="460" width="130" height="40" as="geometry" />
        </mxCell>
      </root>
    </mxGraphModel>
  </diagram>
</mxfile>
